<svg width="31" height="32" viewBox="0 0 31 32" fill="none" xmlns="http://www.w3.org/2000/svg">
<path d="M15.1311 29.7796C14.4776 29.6076 13.8238 29.4359 13.1703 29.2635C11.6281 28.8573 10.0847 28.4557 8.54471 28.0418C8.03444 27.9047 7.52188 27.7768 7.01218 27.6371C6.43215 27.4779 5.84812 27.3328 5.26781 27.1736C4.8756 27.066 4.47653 26.9821 4.08432 26.8745C3.64465 26.754 3.20156 26.6472 2.76161 26.529C2.15585 26.3661 1.55181 26.1969 0.941485 26.0521C0.825137 26.0243 0.787116 25.9951 0.823707 25.864C1.13445 24.7494 1.43575 23.6324 1.74134 22.5164C2.08267 21.2706 2.42714 20.026 2.76732 18.78C3.09378 17.5846 3.41596 16.3884 3.74099 15.1927C4.0583 14.0251 4.37676 12.8578 4.69579 11.6904C4.70779 11.6464 4.70865 11.596 4.76468 11.5485C4.77297 11.6904 4.78269 11.8193 4.78727 11.9484C4.83215 13.2305 4.8716 14.5126 4.92105 15.7944C5.00853 18.0629 5.10201 20.3309 5.19291 22.5994C5.2012 22.8043 5.20835 23.0093 5.21378 23.2142C5.2155 23.2806 5.23579 23.3256 5.29725 23.3651C6.33324 24.032 7.36694 24.703 8.40207 25.3714C8.89776 25.6914 9.39603 26.0072 9.89258 26.3258C10.3929 26.6469 10.894 26.9667 11.392 27.2916C11.9165 27.6339 12.4354 27.9854 12.9619 28.3243C13.1638 28.4543 13.3685 28.5831 13.5666 28.7162C13.7558 28.8433 13.9493 28.969 14.1391 29.0952C14.4276 29.2867 14.7143 29.4842 15.0139 29.6594C15.0616 29.6875 15.1037 29.7255 15.1483 29.759C15.1425 29.7662 15.1371 29.7731 15.1314 29.7802L15.1311 29.7796Z" fill="#276FE5"/>
<path d="M26.2789 10.319C26.0862 10.2609 25.9221 10.1544 25.7489 10.0691C23.8222 9.11902 21.896 8.16724 19.9704 7.21461C18.5742 6.52361 17.1789 5.83088 15.7844 5.13673C15.7041 5.09666 15.64 5.09294 15.5589 5.13673C14.46 5.72841 13.3471 6.29289 12.2385 6.86539C11.1682 7.41842 10.1074 7.98977 9.03935 8.54738C7.87415 9.15595 6.70609 9.75879 5.53775 10.3611C5.44427 10.4091 5.35337 10.4767 5.23645 10.4675C5.22501 10.402 5.27818 10.3808 5.30877 10.3505C6.3985 9.26987 7.48794 8.18929 8.58053 7.11185C9.6188 6.08794 10.6608 5.06775 11.7011 4.04555C12.0675 3.68545 12.4306 3.32134 12.8002 2.96439C13.0964 2.67843 13.3848 2.38417 13.6801 2.09734C14.0466 1.74125 14.4097 1.38201 14.7704 1.02019C15.0952 0.69444 15.4334 0.382143 15.7564 0.0546747C15.8387 -0.0286236 15.8813 -0.00801374 15.9476 0.0581097C16.3316 0.442255 16.716 0.825828 17.1028 1.20711C17.9956 2.08675 18.8904 2.96468 19.7834 3.84403C20.2554 4.30861 20.7248 4.77577 21.1962 5.24093C21.7305 5.7682 22.2656 6.29461 22.8005 6.82102C23.1192 7.13475 23.4497 7.4376 23.7544 7.76449C24.2049 8.24768 24.6923 8.69337 25.1506 9.16854C25.493 9.52378 25.8538 9.86126 26.2051 10.2082C26.2337 10.2365 26.2729 10.2612 26.2786 10.319H26.2789Z" fill="#276FE5"/>
<path d="M16.6904 29.7724C16.7642 29.6737 16.8459 29.6419 16.9168 29.5955C17.7544 29.0494 18.5906 28.5006 19.4313 27.9593C20.5125 27.2635 21.5788 26.5453 22.6685 25.8626C23.1565 25.5568 23.6262 25.2214 24.1176 24.9217C24.4946 24.6918 24.8637 24.4508 25.2284 24.2029C25.637 23.9252 26.0546 23.6619 26.4723 23.3985C26.5746 23.3338 26.6178 23.256 26.6201 23.1306C26.6292 22.6013 26.6455 22.0723 26.6672 21.5433C26.7398 19.7623 26.8193 17.9818 26.8891 16.2008C26.9477 14.7046 26.9963 13.2078 27.05 11.7116C27.0517 11.6606 27.0408 11.6059 27.0874 11.543C27.1541 11.782 27.2181 12.0081 27.2801 12.2348C27.7564 13.9767 28.2323 15.7185 28.7083 17.4603C29.1291 19.0003 29.5622 20.5369 29.9659 22.0815C30.158 22.8163 30.3938 23.5388 30.5699 24.2776C30.682 24.7468 30.8289 25.2059 30.9541 25.6711C30.979 25.7635 30.983 25.8574 30.9984 25.9504C31.0127 26.0357 30.9358 26.0271 30.8901 26.0395C30.5242 26.1394 30.1574 26.2367 29.7906 26.3331C28.8901 26.5699 27.9896 26.8063 27.0889 27.0422C25.9408 27.3425 24.7928 27.6416 23.6447 27.9416C22.9435 28.1248 22.2417 28.3074 21.5413 28.4935C20.1497 28.8633 18.7587 29.2363 17.3671 29.6061C17.1515 29.6634 16.9337 29.7126 16.6907 29.7718L16.6904 29.7724Z" fill="#276FE5"/>
<path d="M20.8693 20.2341C20.6949 20.462 20.4956 20.626 20.3135 20.8057C18.7541 22.3463 17.1916 23.8838 15.6319 25.4241C15.5647 25.4905 15.5255 25.5031 15.4515 25.4298C14.9921 24.9729 14.5262 24.5221 14.0648 24.0673C12.9036 22.9228 11.7429 21.7781 10.5837 20.6317C10.4022 20.4519 10.2301 20.2627 10.0435 20.0675C10.3007 20.198 10.5506 20.3211 10.7976 20.4502C11.6037 20.8713 12.4082 21.2964 13.2149 21.716C13.9373 22.0919 14.6622 22.4625 15.3852 22.837C15.4341 22.8621 15.4727 22.8788 15.5298 22.8501C16.424 22.4027 17.3197 21.9576 18.2153 21.5128C19.0209 21.1129 19.827 20.7136 20.6334 20.3154C20.6995 20.2828 20.7646 20.2435 20.869 20.2341H20.8693Z" fill="#276FE5"/>
<path d="M15.1474 10.9905C14.7917 11.2083 14.4355 11.4256 14.0805 11.6446C13.5799 11.9532 13.0802 12.2632 12.5806 12.5729C11.8536 13.0232 11.1278 13.4751 10.3985 13.922C10.3108 13.9758 10.2733 14.0356 10.2699 14.1378C10.2367 15.1288 10.2007 16.1195 10.1635 17.1102C10.1338 17.9008 10.1012 18.6915 10.0435 19.495C9.99688 19.3624 9.94027 19.2325 9.90483 19.0968C9.64983 18.115 9.3431 17.1477 9.06981 16.171C8.75935 15.0613 8.44004 13.954 8.11929 12.8471C8.08671 12.7346 8.12901 12.7074 8.22221 12.6845C8.95717 12.5033 9.69185 12.321 10.426 12.1361C11.9262 11.7585 13.4259 11.3789 14.9261 11.0008C14.995 10.9834 15.0659 10.9733 15.1359 10.9596C15.1396 10.9699 15.1434 10.9802 15.1471 10.9902L15.1474 10.9905Z" fill="#276FE5"/>
<path d="M16.0444 10.9539C16.3126 11.0206 16.5664 11.0819 16.8191 11.1466C18.5938 11.6023 20.3696 12.0534 22.1506 12.4842C22.4233 12.55 22.692 12.6325 22.9642 12.7009C23.0513 12.7229 23.0625 12.7584 23.0385 12.8414C22.6526 14.1779 22.2689 15.515 21.8864 16.8524C21.6743 17.5943 21.4662 18.3374 21.2541 19.0794C21.2126 19.2248 21.1603 19.367 21.1017 19.5442C21.0548 19.1197 21.0646 18.7304 21.048 18.3423C21.0111 17.485 20.9902 16.6271 20.9531 15.7698C20.9288 15.2081 20.8945 14.6471 20.8885 14.0849C20.8879 14.0245 20.8627 13.9904 20.8136 13.9595C20.2218 13.5877 19.6172 13.237 19.0326 12.8535C18.7796 12.6874 18.5109 12.546 18.2536 12.3863C17.5435 11.9458 16.8357 11.5015 16.127 11.0584C16.0953 11.0386 16.0604 11.0206 16.0444 10.9542V10.9539Z" fill="#276FE5"/>
<path d="M14.9715 29.8912C14.7583 29.961 14.5542 30.0291 14.3495 30.0947C13.7074 30.3005 13.0654 30.5072 12.4225 30.7098C11.4719 31.0095 10.5203 31.3055 9.56921 31.6044C9.47887 31.6327 9.38939 31.6665 9.30249 31.7046C8.95287 31.8568 8.58096 31.882 8.2079 31.9201C7.93604 31.9479 7.66961 31.9224 7.40033 31.9175C6.81687 31.9072 6.23313 31.9092 5.64967 31.9164C5.31549 31.9204 4.9816 31.9453 4.6477 31.9573C4.57281 31.9599 4.49734 31.9427 4.42215 31.9439C3.80897 31.9545 3.19635 31.9799 2.58288 31.9742C2.31073 31.9716 2.03944 31.992 1.76587 31.9871C1.55318 31.9834 1.33335 31.9745 1.11752 31.9985C0.973156 32.0146 0.841657 31.8932 0.828793 31.7472C0.823933 31.6902 0.861668 31.688 0.900546 31.6822C1.0875 31.6548 1.27418 31.625 1.46113 31.5998C1.8076 31.5531 2.15436 31.5085 2.50112 31.4635C2.89019 31.4132 3.27954 31.3645 3.66832 31.3124C4.13657 31.2497 4.60425 31.1816 5.07307 31.1212C5.4104 31.0777 5.74972 31.0525 6.08619 30.9995C6.47326 30.9386 6.86261 30.893 7.2511 30.8415C7.57899 30.7977 7.90717 30.7542 8.23535 30.7119C8.47919 30.6804 8.72361 30.6515 8.96745 30.6208C9.2579 30.5842 9.54834 30.5487 9.83821 30.51C10.245 30.4557 10.6512 30.3978 11.0583 30.3437C11.5125 30.2833 11.9676 30.2272 12.4219 30.1665C12.8109 30.1147 13.1992 30.0563 13.5882 30.0054C14.001 29.9516 14.4144 29.9023 14.8277 29.8542C14.8698 29.8494 14.9218 29.8334 14.9718 29.8915L14.9715 29.8912Z" fill="#E4E5E6"/>
<path d="M16.802 29.8841C17.069 29.8411 17.3297 29.8798 17.591 29.9182C17.9232 29.9665 18.2576 30 18.5887 30.0555C18.8585 30.1008 19.1278 30.1486 19.3997 30.1795C19.6856 30.2121 19.9714 30.245 20.257 30.282C20.6221 30.3292 20.9885 30.3713 21.3513 30.4331C21.6455 30.4835 21.9445 30.4789 22.2381 30.5367C22.4693 30.5822 22.7052 30.606 22.9396 30.6358C23.23 30.6727 23.5208 30.705 23.8112 30.7408C24.1208 30.7792 24.4304 30.8175 24.7397 30.8588C25.077 30.9037 25.4135 30.9521 25.7505 30.9982C26.3823 31.0843 27.0143 31.1673 27.6453 31.2581C27.7545 31.2738 27.8588 31.3213 27.9623 31.3531C27.9651 31.3969 27.9383 31.3989 27.916 31.3978C27.6553 31.3863 27.3943 31.4201 27.133 31.3763C27.0338 31.3597 26.9266 31.3972 26.8231 31.3978C26.3468 31.4006 25.8703 31.3915 25.3943 31.4009C24.8701 31.4115 24.3455 31.4258 23.8229 31.4627C23.6234 31.4768 23.4244 31.4713 23.226 31.4862C22.8836 31.5117 22.5394 31.4831 22.1972 31.5375C21.9868 31.5707 21.7861 31.4791 21.5886 31.4155C20.9154 31.1988 20.2461 30.9701 19.5723 30.7557C18.7039 30.4792 17.8323 30.2118 16.9621 29.9402C16.9083 29.9233 16.8555 29.903 16.8023 29.8844L16.802 29.8841Z" fill="#E4E5E6"/>
<path d="M14.7171 17.3807C14.7171 17.1517 14.7203 16.9227 14.7154 16.694C14.7137 16.6141 14.7363 16.5835 14.8189 16.5866C15.0425 16.5947 15.2669 16.5898 15.4901 16.6024C15.7051 16.6147 15.8692 16.7698 15.9152 16.9837C15.9632 17.2084 15.8772 17.446 15.6948 17.5413C15.6045 17.5885 15.6188 17.6309 15.6602 17.6953C15.7325 17.8072 15.8034 17.9203 15.8749 18.0328C15.8926 18.0608 15.9089 18.096 15.9467 18.0952C15.9967 18.094 15.9967 18.0454 16.0095 18.0122C16.1782 17.5819 16.3532 17.1537 16.5101 16.7192C16.557 16.5889 16.6413 16.5935 16.7408 16.5875C16.8388 16.5815 16.8963 16.617 16.934 16.7143C17.1096 17.1674 17.2905 17.6186 17.4743 18.0686C17.5078 18.1504 17.4998 18.1836 17.4069 18.1748C17.388 18.173 17.3688 18.1748 17.3497 18.1748C17.1293 18.1765 17.1239 18.1779 17.0641 17.9589C17.0355 17.8544 16.9886 17.8018 16.8774 17.8155C16.8351 17.8207 16.7917 17.8161 16.7491 17.8161C16.4578 17.8155 16.4552 17.8146 16.3474 18.0906C16.3223 18.1553 16.2891 18.1779 16.2222 18.1765C16.0364 18.1727 15.8506 18.1722 15.6651 18.1756C15.5982 18.1768 15.5599 18.1487 15.5284 18.0943C15.4544 17.9664 15.3763 17.841 15.3017 17.7136C15.2609 17.6435 15.21 17.5788 15.1225 17.6051C15.043 17.6292 15.0802 17.7105 15.0768 17.7668C15.0716 17.8524 15.0728 17.9386 15.0779 18.0242C15.0833 18.1184 15.0848 18.2014 14.9501 18.175C14.8526 18.1559 14.7 18.244 14.7171 18.0242C14.7337 17.8109 14.7209 17.5951 14.7209 17.3807H14.7183H14.7171ZM15.0713 17.1156C15.1071 17.1858 14.9833 17.3484 15.2031 17.3423C15.5127 17.334 15.5753 17.3043 15.5773 17.1199C15.5793 16.9273 15.4916 16.862 15.23 16.8606C15.1248 16.86 15.0719 16.945 15.0713 17.1156ZM16.7288 17.0177C16.6868 17.1385 16.6588 17.2238 16.6273 17.3077C16.5278 17.5736 16.5284 17.5725 16.8123 17.5542C16.8874 17.5493 16.9035 17.523 16.8809 17.4577C16.834 17.3232 16.7877 17.1886 16.7285 17.0177H16.7288Z" fill="#276FE5"/>
<path d="M13.3866 18.1648C13.3514 18.1674 13.3194 18.1711 13.2871 18.1714C13.0301 18.176 13.0249 18.1774 12.9469 17.9329C12.9143 17.831 12.8608 17.799 12.7602 17.8067C12.661 17.8144 12.5604 17.8156 12.4612 17.8076C12.3646 17.7995 12.316 17.8313 12.2865 17.9272C12.2076 18.1817 12.2033 18.1803 11.9383 18.1711C11.91 18.1702 11.8817 18.1674 11.8389 18.1642C11.9444 17.894 12.047 17.6307 12.1499 17.3679C12.2385 17.142 12.3306 16.9176 12.4152 16.6903C12.4458 16.6082 12.4975 16.5758 12.5778 16.5904C12.6633 16.6062 12.7699 16.5561 12.8194 16.6843C13.0044 17.1632 13.195 17.6401 13.3828 18.1179C13.3877 18.1299 13.3854 18.1448 13.3868 18.1645L13.3866 18.1648ZM12.7945 17.5322C12.7414 17.3773 12.6876 17.2216 12.6241 17.037C12.5878 17.1352 12.5644 17.2016 12.539 17.2671C12.4589 17.4736 12.5326 17.5675 12.7599 17.5488C12.7685 17.5482 12.7765 17.5411 12.7945 17.5319V17.5322Z" fill="#276FE5"/>
<path d="M18.8074 17.2073C18.8011 17.3937 18.8383 17.6382 18.7408 17.8732C18.6648 18.0569 18.5404 18.1734 18.3397 18.1923C18.2405 18.2018 18.139 18.2061 18.0401 18.1958C17.8011 18.1706 17.6522 18.0297 17.5813 17.8039C17.5656 17.7541 17.5573 17.7017 17.5504 17.6499C17.5159 17.3934 17.4613 17.4152 17.7648 17.4103C17.8595 17.4089 17.8878 17.4432 17.8815 17.5368C17.8738 17.6536 17.9038 17.7632 17.9907 17.8514C18.137 18 18.3843 17.9473 18.4338 17.7458C18.4992 17.4787 18.4644 17.2045 18.4649 16.9331C18.4649 16.8607 18.4078 16.869 18.3614 16.8681C18.252 16.8664 18.1422 16.865 18.0327 16.8673C17.9026 16.8701 17.9444 16.7745 17.9366 16.7064C17.9284 16.6328 17.9458 16.5928 18.035 16.5951C18.2588 16.6014 18.4829 16.6016 18.7068 16.5974C18.7923 16.5959 18.8108 16.6308 18.8085 16.7078C18.804 16.8555 18.8071 17.0035 18.8071 17.2068L18.8074 17.2073Z" fill="#276FE5"/>
<path d="M13.8308 17.249C13.8308 17.4204 13.8348 17.5922 13.8291 17.7634C13.8259 17.8593 13.8505 17.8999 13.956 17.8936C14.1172 17.8839 14.2796 17.8959 14.4411 17.8879C14.5878 17.8804 14.5317 17.9864 14.5429 18.0539C14.5557 18.1309 14.5392 18.177 14.4414 18.175C14.1561 18.1687 13.8705 18.1704 13.5849 18.173C13.5129 18.1736 13.4837 18.1521 13.4834 18.0765C13.4829 17.6097 13.4789 17.1428 13.4749 16.6762C13.4743 16.6252 13.4889 16.6015 13.5449 16.5932C13.7985 16.5568 13.8313 16.5826 13.8308 16.8348C13.8308 16.9063 13.8299 16.9776 13.8299 17.0492C13.8299 17.1159 13.8299 17.1826 13.8299 17.2493H13.8305L13.8308 17.249Z" fill="#276FE5"/>
<path d="M19.0165 17.3874C19.0165 17.1635 19.0197 16.9397 19.0148 16.7161C19.0128 16.6257 19.0377 16.5796 19.1346 16.597C19.1392 16.5979 19.144 16.597 19.1489 16.597C19.3616 16.5956 19.363 16.5956 19.3641 16.8083C19.3661 17.2176 19.363 17.6272 19.3704 18.0366C19.3724 18.1428 19.3447 18.188 19.2366 18.172C19.2041 18.1671 19.1698 18.1677 19.1369 18.172C19.0357 18.186 19.0071 18.1431 19.0102 18.044C19.0174 17.8253 19.0125 17.6061 19.0125 17.3871C19.014 17.3871 19.0154 17.3871 19.0168 17.3871L19.0165 17.3874Z" fill="#276FE5"/>
</svg>
