<?xml version="1.0" encoding="UTF-8"?>
<svg id="Layer_2" data-name="Layer 2" xmlns="http://www.w3.org/2000/svg" viewBox="0 0 420.46 591.7">
  <defs>
    <style>
      .cls-1 {
        fill: #015263;
      }

      .cls-2 {
        fill: #36b89e;
      }

      .cls-3 {
        fill: #3b7ecc;
      }
    </style>
  </defs>
  <g id="Layer_1-2" data-name="Layer 1">
    <g>
      <path class="cls-1" d="M212.01,442.32c0-42.75,0-85.5,0-128.26,0-4.07,1.68-10.98,3.56-14.49,3.76-7,11.03-12.2,18.93-13.08,2.16-.24,4.35-.81,6.6-.85,6.5-.11,12.22,2.45,17.7,5.47,1.62,.89,3.09,2.22,4.89,2.67,1.97,.48,3.11,2.07,4.74,3,8.65,4.92,16.95,10.47,25.65,15.31,4.46,2.48,8.85,5.1,13.32,7.57,4.63,2.56,8.96,5.67,13.52,8.38,4.52,2.69,9.2,5.13,13.74,7.81,4.43,2.61,8.72,5.45,13.14,8.07,2.79,1.66,5.86,2.87,8.53,4.68,6.71,4.56,13.92,8.28,20.84,12.47,4.34,2.63,8.79,5.2,13.29,7.62,5.06,2.72,10.08,5.6,14.77,8.91,3.54,2.5,5.63,6.13,6.77,10.59,1.45,5.69,.87,8.92-2.19,14.82-2.78,5.36-8.24,9.61-14.97,9.49-7.76-.14-7.66-.27-16.39-3.86-7.11-2.93-14.28-5.73-21.57-8.21-5.09-1.73-9.99-4.01-15.02-5.92-5.32-2.02-10.48-4.43-15.96-6.1-3.95-1.2-7.56-3.46-11.47-4.84-5.52-1.95-11-4.02-16.43-6.15-5.16-2.02-10.29-4.11-15.53-5.94-3.19-1.11-6.21-2.68-9.36-3.92-1.28-.51-2.25,.22-2.11,1.61,.57,5.75-1.6,11.3-1.09,17.06,.19,2.19-1.25,4.21-1.03,6.58,.21,2.17,.71,4.57-.9,6.57-.08,.1-.03,.33,0,.49,.76,5.26-1.66,10.34-.94,15.55,.33,2.41-1.18,4.31-1.09,6.58,.09,2.16,.67,4.62-.13,6.42-1.24,2.77-.9,5.46-.75,8.13,.15,2.67-1.38,4.91-1.19,7.58,.17,2.33,.84,4.9-.89,7.07-.08,.1-.03,.33,0,.49,.75,4.93-1.21,9.66-1.03,14.56,.18,4.71-1.66,9.3-.98,14.06-1.71,2.7-1.11,5.73-.9,8.56,.18,2.53-1.39,4.55-1.22,7.09,.16,2.31,1.03,4.92-.86,7.08-.16,.19-.06,.65-.02,.98,.65,5.41-1.44,10.64-1.07,16.06,.15,2.17-1.21,4.22-1,6.58,.19,2.19,.64,4.54-.89,6.59-.24,.32-.08,.98-.03,1.47,.6,5.58-.87,11.03-1.24,16.54-.25,3.84-.12,7.83-.95,11.54-.69,3.08-.46,6.09-.87,9.1-.58,4.32-1.75,8.52-4.32,12.17-2.5,3.55-6.34,5.62-10.13,6.84-3.32,1.07-7.47,1.03-10.82,.04-2.78-.82-5.69-2.36-8.1-4.58-4.69-4.33-6.53-9.68-6.54-15.79-.03-42.75-.02-85.5-.02-128.26Z"/>
      <path class="cls-3" d="M243.01,237.68c-4.33,.29-8.08-1.17-11.94-1.97-2.05-.43-3.57-1.93-5.21-3.05-1.96-1.34-4.19-2.35-5.74-4.28-1.78-2.22-3.65-4.6-4.71-7.04-1.19-2.73-1.98-5.84-2.56-8.95-1.2-6.38-.68-12.73-.8-19.09-.13-6.32-.03-12.64-.03-18.96,0-50.9,.02-101.81-.03-152.71,0-5.78,2.04-10.83,5.39-15.21,2.06-2.69,5.53-4.02,8.72-5.29,6.15-2.45,11.69-.54,17.06,2.59,3.72,2.17,5.49,5.76,7.38,9.35,.99,1.88-.39,4.28,1.46,5.89-.72,3.46,1.34,6.67,.95,10.06-.25,2.19,1.28,3.9,1.13,6.09-.12,1.84-.79,3.91,.86,5.62,.33,.34,.04,1.28,.05,1.95,.05,2.23,0,4.39,.88,6.62,.79,1.99-.58,4.52,1.08,6.56,.24,.3,.02,.97,.04,1.47,.07,2.39,0,4.72,.88,7.12,.73,2-.45,4.52,1.1,6.55,.16,.21,0,.65,.02,.98,.17,2.38-.12,4.7,.84,7.13,.83,2.1-.34,4.82,1.15,7.01-.75,3.95,1.31,7.66,.98,11.56-.16,1.97,1.49,3.47,1.1,5.59-.34,1.83-.52,3.9,.91,5.56-.73,3.3,1.13,6.33,.99,9.57-.09,2.1,.24,4.08,.94,6.1,.67,1.91-.77,4.23,1.02,6.1,.33,.35,.03,1.29,.05,1.95,.05,2.23-.01,4.39,.88,6.62,.8,1.99-.62,4.54,1.09,6.55,.16,.19,.06,.65,.02,.98-.65,4.27,1.53,8.28,1.07,12.57-.22,2.08,.7,2.19,3.32,1.78,5.88-.93,11.37-3.34,17.26-4.21,2.11-.31,4.11-1.3,6.17-1.94,4.89-1.51,9.91-2.59,14.8-4.08,4.91-1.5,9.95-2.5,14.8-4.06,2.92-.94,5.91-1.99,8.84-2.67,3.03-.7,6.04-1.62,9.1-2.29,3.76-.83,7.49-1.95,11.2-3.07,4.6-1.39,9.31-2.41,13.88-3.87,5.03-1.61,10.27-2.48,15.21-4.28,2.8-1.02,5.77-1.11,8.53-2.32,2.63-1.15,5.49-1.48,8.44-1.38,4.12,.14,7.54,1.42,10.92,3.94,2.65,1.98,4.53,4.1,5.89,7.05,2.14,4.63,2.82,10.12,1.08,14.87-1.84,5.02-4.9,8.71-10,11.3-6.47,3.3-13.18,6.02-19.68,9.22-3.86,1.89-7.73,3.83-11.68,5.53-8.49,3.64-16.89,7.47-25.21,11.49-7.62,3.69-15.37,7.09-23.11,10.52-8.3,3.69-16.56,7.45-24.76,11.37-8.33,3.98-16.72,7.84-25.16,11.59-8.3,3.69-16.59,7.39-24.76,11.35-1.38,.67-2.84,1.44-4.31,1.58-2.71,.26-5.24,1.85-7.78,1.03Z"/>
      <path class="cls-2" d="M.23,356.47c-.9-8.41,4.19-13.32,9.8-17.88,3.29-2.68,6.74-5.17,10.12-7.75-.23-2.21,2.39-1.06,3.07-2.63,.48-1.12,1.86-2,3.24-2.73,2.53-1.34,4.4-3.73,6.62-5.59,3.1-2.6,6.48-4.94,9.28-7.93,2.4-2.57,5.45-4.37,8.27-6.45,2.46-1.81,4.62-4.04,6.97-6.03,4.44-3.76,9.04-7.33,13.5-11.05,4.13-3.44,7.92-7.45,12.76-10.02,.81-2.44,3.29-3.29,5-4.74,1.83-1.55,3.48-3.51,5.54-4.6,2.28-1.21,3.54-3.36,5.56-4.66,1.64-1.05,3.15-2.17,4.52-3.55,.7-.71,.03-.93-.1-1.45-.29-1.19-.88-2.25-1.86-2.69-2.29-1.04-3.1-3.59-5.44-4.71-1.68-.8-2.65-2.97-4.18-4.23-1.14-.94-1.01-2.8-3.09-3.21-1.37-.27-2.68-1.94-3.57-3.28-1.98-2.98-4.96-4.86-7.42-7.3-2.46-2.44-4.52-5.23-7.29-7.43-2.84-2.27-5.24-5.1-7.82-7.69-2.47-2.47-4.94-4.94-7.42-7.41-2.59-2.59-5.18-5.17-7.77-7.76s-5.18-5.17-7.77-7.76c-2.59-2.59-5.18-5.17-7.77-7.76-2.47-2.47-4.94-4.94-7.42-7.41-2.59-2.59-5.18-5.17-7.77-7.76-2.59-2.59-5.02-5.37-7.81-7.71-2.83-2.37-4.57-5.61-5.4-8.75-1.35-5.11-1.03-10.64,1.88-15.34,1.72-2.77,3.49-5.8,6.91-7.05,.66-1.86,2.59-.92,3.79-1.72,1.88-1.23,4.47,.07,6.36-1.51,.2-.16,.84-.16,.95,0,1.58,2.23,4.21,.41,6.32,1.78,2.02,1.3,4.33,2.47,6.33,3.84,6.87,4.75,13.74,9.54,20.4,14.56,4.57,3.44,9.78,6.06,13.82,10.31,1.64,1.73,4.16,2.73,6.17,4.28,4.5,3.46,9.23,6.61,13.84,9.94,5.13,3.7,10.21,7.49,15.34,11.18,4.35,3.13,8.77,6.16,13.13,9.28,5.4,3.87,10.75,7.79,16.13,11.7,3.2,2.33,6.33,4.75,9.6,6.97,7.72,5.27,15.08,11.03,22.6,16.56,4.5,3.31,9.23,6.25,13.27,10.2,4.01,3.92,5.78,8.9,7.48,13.9,.69,2.02-.25,4.5,1.1,6.54-1.41,6.03-1.69,12.28-5.39,17.75-4.38,6.46-10.66,10.36-17.21,13.85-4.66,2.49-9.15,5.25-13.63,8-2.79,1.71-6.15,2.5-8.4,5.07-8.27,3.59-15.68,8.74-23.5,13.12-8.11,4.55-16.23,9.12-24.18,13.94-7.84,4.75-15.8,9.29-23.7,13.93-6.95,4.09-13.89,8.17-20.99,12-5.89,3.18-11.26,7.31-17.13,10.52-4.16,2.28-8.37,4.61-12.94,6.09-1.61,.52-3.26,.32-4.88,.25-5.38-.26-13.27-4.85-15.83-9.63-1.72-3.22-2.72-6.81-2-10.38Z"/>
    </g>
  </g>
</svg>