<?xml version="1.0" encoding="UTF-8"?>
<svg id="Layer_2" data-name="Layer 2" xmlns="http://www.w3.org/2000/svg" viewBox="0 0 1370.76 591.7">
  <defs>
    <style>
      .cls-1 {
        fill: #015263;
      }

      .cls-2 {
        fill: #36b89e;
      }

      .cls-3 {
        fill: #3b7ecc;
      }
    </style>
  </defs>
  <g id="Layer_1-2" data-name="Layer 1">
    <g>
      <path class="cls-1" d="M1162.31,442.32c0-42.75,0-85.5,0-128.26,0-4.07,1.68-10.98,3.56-14.49,3.76-7,11.03-12.2,18.93-13.08,2.16-.24,4.35-.81,6.6-.85,6.5-.11,12.22,2.45,17.7,5.47,1.62,.89,3.09,2.22,4.89,2.67,1.97,.48,3.11,2.07,4.74,3,8.65,4.92,16.95,10.47,25.65,15.31,4.46,2.48,8.85,5.1,13.32,7.57,4.63,2.56,8.96,5.67,13.52,8.38,4.52,2.69,9.2,5.13,13.74,7.81,4.43,2.61,8.72,5.45,13.14,8.07,2.79,1.66,5.86,2.87,8.53,4.68,6.71,4.56,13.92,8.28,20.84,12.47,4.34,2.63,8.79,5.2,13.29,7.62,5.06,2.72,10.08,5.6,14.77,8.91,3.54,2.5,5.63,6.13,6.77,10.59,1.45,5.69,.87,8.92-2.19,14.82-2.78,5.36-8.24,9.61-14.97,9.49-7.76-.14-7.66-.27-16.39-3.86-7.11-2.93-14.28-5.73-21.57-8.21-5.09-1.73-9.99-4.01-15.02-5.92-5.32-2.02-10.48-4.43-15.96-6.1-3.95-1.2-7.56-3.46-11.47-4.84-5.52-1.95-11-4.02-16.43-6.15-5.16-2.02-10.29-4.11-15.53-5.94-3.19-1.11-6.21-2.68-9.36-3.92-1.28-.51-2.25,.22-2.11,1.61,.57,5.75-1.6,11.3-1.09,17.06,.19,2.19-1.25,4.21-1.03,6.58,.21,2.17,.71,4.57-.9,6.57-.08,.1-.03,.33,0,.49,.76,5.26-1.66,10.34-.94,15.55,.33,2.41-1.18,4.31-1.09,6.58,.09,2.16,.67,4.62-.13,6.42-1.24,2.77-.9,5.46-.75,8.13,.15,2.67-1.38,4.91-1.19,7.58,.17,2.33,.84,4.9-.89,7.07-.08,.1-.03,.33,0,.49,.75,4.93-1.21,9.66-1.03,14.56,.18,4.71-1.66,9.3-.98,14.06-1.71,2.7-1.11,5.73-.9,8.56,.18,2.53-1.39,4.55-1.22,7.09,.16,2.31,1.03,4.92-.86,7.08-.16,.19-.06,.65-.02,.98,.65,5.41-1.44,10.64-1.07,16.06,.15,2.17-1.21,4.22-1,6.58,.19,2.19,.64,4.54-.89,6.59-.24,.32-.08,.98-.03,1.47,.6,5.58-.87,11.03-1.24,16.54-.25,3.84-.12,7.83-.95,11.54-.69,3.08-.46,6.09-.87,9.1-.58,4.32-1.75,8.52-4.32,12.17-2.5,3.55-6.34,5.62-10.13,6.84-3.32,1.07-7.47,1.03-10.82,.04-2.78-.82-5.69-2.36-8.1-4.58-4.69-4.33-6.53-9.68-6.54-15.79-.03-42.75-.02-85.5-.02-128.26Z"/>
      <path class="cls-3" d="M1193.31,237.68c-4.33,.29-8.08-1.17-11.94-1.97-2.05-.43-3.57-1.93-5.21-3.05-1.96-1.34-4.19-2.35-5.74-4.28-1.78-2.22-3.65-4.6-4.71-7.04-1.19-2.73-1.98-5.84-2.56-8.95-1.2-6.38-.68-12.73-.8-19.09-.13-6.32-.03-12.64-.03-18.96,0-50.9,.02-101.81-.03-152.71,0-5.78,2.04-10.83,5.39-15.21,2.06-2.69,5.53-4.02,8.72-5.29,6.15-2.45,11.69-.54,17.06,2.59,3.72,2.17,5.49,5.76,7.38,9.35,.99,1.88-.39,4.28,1.46,5.89-.72,3.46,1.34,6.67,.95,10.06-.25,2.19,1.28,3.9,1.13,6.09-.12,1.84-.79,3.91,.86,5.62,.33,.34,.04,1.28,.05,1.95,.05,2.23,0,4.39,.88,6.62,.79,1.99-.58,4.52,1.08,6.56,.24,.3,.02,.97,.04,1.47,.07,2.39,0,4.72,.88,7.12,.73,2-.45,4.52,1.1,6.55,.16,.21,0,.65,.02,.98,.17,2.38-.12,4.7,.84,7.13,.83,2.1-.34,4.82,1.15,7.01-.75,3.95,1.31,7.66,.98,11.56-.16,1.97,1.49,3.47,1.1,5.59-.34,1.83-.52,3.9,.91,5.56-.73,3.3,1.13,6.33,.99,9.57-.09,2.1,.24,4.08,.94,6.1,.67,1.91-.77,4.23,1.02,6.1,.33,.35,.03,1.29,.05,1.95,.05,2.23-.01,4.39,.88,6.62,.8,1.99-.62,4.54,1.09,6.55,.16,.19,.06,.65,.02,.98-.65,4.27,1.53,8.28,1.07,12.57-.22,2.08,.7,2.19,3.32,1.78,5.88-.93,11.37-3.34,17.26-4.21,2.11-.31,4.11-1.3,6.17-1.94,4.89-1.51,9.91-2.59,14.8-4.08,4.91-1.5,9.95-2.5,14.8-4.06,2.92-.94,5.91-1.99,8.84-2.67,3.03-.7,6.04-1.62,9.1-2.29,3.76-.83,7.49-1.95,11.2-3.07,4.6-1.39,9.31-2.41,13.88-3.87,5.03-1.61,10.27-2.48,15.21-4.28,2.8-1.02,5.77-1.11,8.53-2.32,2.63-1.15,5.49-1.48,8.44-1.38,4.12,.14,7.54,1.42,10.92,3.94,2.65,1.98,4.53,4.1,5.89,7.05,2.14,4.63,2.82,10.12,1.08,14.87-1.84,5.02-4.9,8.71-10,11.3-6.47,3.3-13.18,6.02-19.68,9.22-3.86,1.89-7.73,3.83-11.68,5.53-8.49,3.64-16.89,7.47-25.21,11.49-7.62,3.69-15.37,7.09-23.11,10.52-8.3,3.69-16.56,7.45-24.76,11.37-8.33,3.98-16.72,7.84-25.16,11.59-8.3,3.69-16.59,7.39-24.76,11.35-1.38,.67-2.84,1.44-4.31,1.58-2.71,.26-5.24,1.85-7.78,1.03Z"/>
      <path class="cls-2" d="M950.53,356.47c-.9-8.41,4.19-13.32,9.8-17.88,3.29-2.68,6.74-5.17,10.12-7.75-.23-2.21,2.39-1.06,3.07-2.63,.48-1.12,1.86-2,3.24-2.73,2.53-1.34,4.4-3.73,6.62-5.59,3.1-2.6,6.48-4.94,9.28-7.93,2.4-2.57,5.45-4.37,8.27-6.45,2.46-1.81,4.62-4.04,6.97-6.03,4.44-3.76,9.04-7.33,13.5-11.05,4.13-3.44,7.92-7.45,12.76-10.02,.81-2.44,3.29-3.29,5-4.74,1.83-1.55,3.48-3.51,5.54-4.6,2.28-1.21,3.54-3.36,5.56-4.66,1.64-1.05,3.15-2.17,4.52-3.55,.7-.71,.03-.93-.1-1.45-.29-1.19-.88-2.25-1.86-2.69-2.29-1.04-3.1-3.59-5.44-4.71-1.68-.8-2.65-2.97-4.18-4.23-1.14-.94-1.01-2.8-3.09-3.21-1.37-.27-2.68-1.94-3.57-3.28-1.98-2.98-4.96-4.86-7.42-7.3-2.46-2.44-4.52-5.23-7.29-7.43-2.84-2.27-5.24-5.1-7.82-7.69-2.47-2.47-4.94-4.94-7.42-7.41-2.59-2.59-5.18-5.17-7.77-7.76s-5.18-5.17-7.77-7.76c-2.59-2.59-5.18-5.17-7.77-7.76-2.47-2.47-4.94-4.94-7.42-7.41-2.59-2.59-5.18-5.17-7.77-7.76-2.59-2.59-5.02-5.37-7.81-7.71-2.83-2.37-4.57-5.61-5.4-8.75-1.35-5.11-1.03-10.64,1.88-15.34,1.72-2.77,3.49-5.8,6.91-7.05,.66-1.86,2.59-.92,3.79-1.72,1.88-1.23,4.47,.07,6.36-1.51,.2-.16,.84-.16,.95,0,1.58,2.23,4.21,.41,6.32,1.78,2.02,1.3,4.33,2.47,6.33,3.84,6.87,4.75,13.74,9.54,20.4,14.56,4.57,3.44,9.78,6.06,13.82,10.31,1.64,1.73,4.16,2.73,6.17,4.28,4.5,3.46,9.23,6.61,13.84,9.94,5.13,3.7,10.21,7.49,15.34,11.18,4.35,3.13,8.77,6.16,13.13,9.28,5.4,3.87,10.75,7.79,16.13,11.7,3.2,2.33,6.33,4.75,9.6,6.97,7.72,5.27,15.08,11.03,22.6,16.56,4.5,3.31,9.23,6.25,13.27,10.2,4.01,3.92,5.78,8.9,7.48,13.9,.69,2.02-.25,4.5,1.1,6.54-1.41,6.03-1.69,12.28-5.39,17.75-4.38,6.46-10.66,10.36-17.21,13.85-4.66,2.49-9.15,5.25-13.63,8-2.79,1.71-6.15,2.5-8.4,5.07-8.27,3.59-15.68,8.74-23.5,13.12-8.11,4.55-16.23,9.12-24.18,13.94-7.84,4.75-15.8,9.29-23.7,13.93-6.95,4.09-13.89,8.17-20.99,12-5.89,3.18-11.26,7.31-17.13,10.52-4.16,2.28-8.37,4.61-12.94,6.09-1.61,.52-3.26,.32-4.88,.25-5.38-.26-13.27-4.85-15.83-9.63-1.72-3.22-2.72-6.81-2-10.38Z"/>
    </g>
    <path class="cls-1" d="M729.64,336.57c-33.46,0-66.93-.05-100.39,.09-2.82,.01-5.37-.88-8.05-1.25-3.3-.46-7.23-6.14-7.49-9.66-.04-.5,0-1,0-1.5,0-21.29,0-42.59,0-63.88,0-.8-.11-1.76,.27-2.37,.47-.75,1.66,.03,2.29-.36,1.94-1.18,4.06-.71,6.09-1.02,1.66-.25,2.66,.93,3.99,1.33,.79,.24,1.56,1.13,1.37,2.37-.15,.97-.03,1.99-.03,2.99,0,18.3,0,36.6,0,54.9,0,3.38,.94,4.33,4.5,4.35,7.33,.04,14.65,.01,21.98,.01,8.99,0,17.98,0,26.97,0q4.5,0,4.51-4.27c0-16.97,0-33.94,0-50.9,0-2.16-.04-4.33,.01-6.49,.06-2.5,1.72-4.16,4.2-4.23,1.66-.05,3.34,.11,4.99-.04,2.02-.18,2.17,3.05,4.52,2.33,.35-.11,.25,1.16,.25,1.78,.02,9.32,0,18.63,.02,27.95,0,1.83,.06,1.87,1.95,.91,5.45-2.76,11.16-4.33,17.33-4,2.16,.11,4.33,.13,6.49,0,5.41-.33,10.28,1.33,14.82,4.04,6.1,3.64,9.89,8.95,10.27,16.15,.1,1.84,1.35,3.22,1.15,5.08-.2,1.81-.04,3.66-.04,5.48,0,.83,.27,1.79-.06,2.47-.56,1.15-1.69,2.38-.6,3.41,.63,.6,2.17,.33,3.3,.33,4.33,.03,8.66,.01,12.99,.01,2.2,0,.83-.74,.39-1.53-1.68-2.98-2.37-6.2-2.05-9.64,.14-1.48,.12-3,0-4.49-.7-9.07,4.76-14.45,11.38-19.17,3.01-.14,5.51-2.51,8.6-2.08,1.74,.24,2.77-1.53,4.6-1.12,1.58,.36,3.36,.33,4.97,.02,2.39-.47,4.25,1.38,6.6,1.12,2.04-.23,4.07-.09,6.11,.86,2.54,1.19,2.71,.93,2.71,3.69,.02,9.98,0,19.96,0,29.94,0,2.61-.29,2.4,2.4,2.39,4.83,0,9.66-.11,14.48,.05,1.89,.07,2.16-.54,2.15-2.24-.08-10.81-.04-21.63-.04-32.44,0-8.82-.02-17.63,0-26.45,0-3.22,.16-2.9,3.49-3.94,2.23-.7,4.38-.95,6.61-.86,2.92,.11,3.87,1.15,3.87,3.97,0,22.79,0,45.58,0,68.37,0,.67,.05,1.34,0,2-.29,3.14-1.79,4.12-4.92,4.58-11.99,1.76-24.04,.72-36.06,.9-12.15,.18-24.31,.04-36.46,.04h-36.46Zm-11.51-12.98c5.48,0,10.95,.03,16.43-.01,2.16-.02,3.01-.78,3.05-2.77,.06-3.81,.17-7.63-.05-11.43-.1-1.63-.65-3.44-1.56-4.78-2.56-3.75-7.26-5.94-11.92-5.96-3.48-.01-6.99,.25-10.45-.07-4.13-.39-7.83,1.11-11.53,2.33-1.32,.44-5.13,.95-2.57,4.35-1.98,5.09-.44,10.37-.83,15.56-.15,1.99,.85,2.77,3.01,2.78,5.47,.04,10.95,.01,16.43,.01Zm79.45-12.85c0-3.81-.04-7.63,.02-11.44,.02-1.25-.61-1.27-1.58-1.78-3.86-2.01-7.59-.58-11.05,.46-2.48,.75-4.75,2.46-5.62,5.92-.75,2.96-.69,5.76-.69,8.6,0,5.45,2.59,9.2,8.2,10.76,3.31,.92,6.86,.28,10.3,.24,.94-2.55,.21-5.19,.39-7.79,.12-1.65,.02-3.32,.02-4.97Z"/>
    <path class="cls-1" d="M238.97,169.32c0,10.15-.18,20.3,.1,30.44,.09,3.16-1.55,5.95-1.13,9.08,.13,.94-1.11,1.85-1.41,1.79-1.92-.41-3.17,1.28-5.09,1.23-7.99-.22-15.98-.1-23.97-.09-2.59,0-4.86-1.2-7.06-2.24-1.23-.58-1.68-.37-2.86,.02-4.37,1.44-8.79,2.77-13.58,2.29-4.34-.44-8.8,.47-13.07-1.06-.15-.05-.33-.03-.5,0-2.02,.29-3-2.96-5.46-1.5-1.57,.93-3.42,1.38-5.07,2.2-.49,.25-.92,.28-1.38,.28-5.33,.01-10.66,0-15.98,.02-1.46,0-2.47-1.6-4.05-1.08-2.58-2.98-5.08-1.23-7.18,.45-2.11,1.69-4.34,2.67-6.93,2.56-1.85-.08-3.2,1.19-5.08,1.18-2.17,0-4.09-1.17-6.07-1.02-2.22,.17-4.1-.68-6.07-1.18-1.63-.41-3.08-1.44-4.43-2.63-.79-.7-2.08-1.48-3.54-.33-2.66,2.08-5.87,2.22-9.13,2.07-2.66-.12-5.35-.23-7.99,.02-3.5,.34-6.6-.86-9.55-2.3-1.25-.61-1.7-.33-2.85,.04-4.38,1.4-8.8,2.82-13.59,2.27-2.79-.32-5.67-.22-8.48-.02-4.46,.31-8.18-1.07-11.21-4.31-.86-.91-1.42-.8-2.45-.08-4.54,3.14-9.82,4.18-15.04,3.17-2.91-.57-5.98-1.19-8.86-2.66-4.01-2.04-6.51-5.1-7.76-9.03-1.23-3.88-2.46-7.85-2.22-12.12,.1-1.83,1.26-3.25,1.15-5.07-.1-1.57,.36-3.05,.82-4.62,2.16-7.35,7.1-11.81,13.99-14.18,5.67-1.95,11.68-2.74,17.61-1.9,2.36,.33,4.7,.76,7.1,.84,1.42,.05,2.66,.88,3.98,1.29,1.13,.35,.4,2.39,.4,3.66,.06,8.32,.03,16.63,.03,24.95,0,.83-.06,1.67,.01,2.49,.18,2.23,2.19,4.3,4.9,4.49,3.31,.23,6.67,.23,9.98,0,2.83-.2,4.08-1.85,4.09-4.81,.02-7.82-.01-15.64,.02-23.46,.01-3.23,.4-3.58,3.72-3.63,1.83-.03,3.66-.03,5.49,0,3.33,.05,4.74,1.41,4.75,4.68,.03,7.98,.03,15.97,0,23.95,0,1.42-.2,2.85,1.99,2.31,3.54,2.01,7.39,.88,11.07,.89,2.75,0,3.91-1.88,3.93-4.91,.02-3.16,.15-6.33-.03-9.48-.22-3.92,1.24-7.48,2.28-11.06,.93-3.16,3.63-5.68,6.33-7.23,4.14-2.38,8.66-4.14,13.74-4.24,4.42-.09,8.55,.75,12.66,2.1,3.41,1.12,5.78,3.76,7.73,6.43,1.67,2.28,2.85,5.2,3.16,8.1,.2,1.92,1.42,3.53,1.16,5.57-.25,1.96-.05,3.99-.05,5.98,0,1-.11,2.01,.03,2.99,.19,1.4-.81,3.15,.8,4.12,1.3,.78,2.82,1.6,4.27,1.66,3.53,.13,7.12,.5,10.59-.86,1.57-.62,2.35-1.33,2.33-3.1-.07-7.98-.04-15.97-.02-23.95,0-3.48,.46-3.9,3.91-3.95,1.83-.02,3.66-.03,5.49,0,3.12,.05,3.56,.48,3.57,3.78,.03,7.15,0,14.31,0,21.46,0,1,.03,2,0,2.99-.06,1.55,.61,2.45,2.17,2.72,2.02,.35,3.89,1.36,6.09,1.04,1.63-.24,3.32-.02,4.99-.05,4.45-.09,5.74-1.37,5.75-5.69,.01-7.32-.01-14.64,0-21.96,.01-4.05,.22-4.26,4.06-4.29,1.83-.02,3.66-.03,5.49,0,2.85,.06,4.41,1.61,4.42,4.52,.03,8.15,.04,16.3-.02,24.45-.01,1.41,.44,1.61,1.8,2.09,4.68,1.67,9.42,.58,14.12,.81,1.93,.1,3.09-1.6,3.09-3.7,0-18.46,0-36.93,0-55.39,0-.83,0-1.66,0-2.5,.04-4.04,.19-4.21,4.12-4.24,2.33-.02,4.66-.05,6.99,.01,2.09,.06,2.84,.83,2.86,2.98,.04,4.49,.01,8.98,.01,13.48v19.96Zm-110.92,19.05c0-2.16,.2-4.34-.05-6.47-.35-2.96-1.62-5.5-4.4-7.05-2.55-1.42-5.45-1.5-8.01-.9-2.62,.62-5.44,1.89-6.24,5.08-.53,2.12-1.13,4.28-1.23,6.44-.16,3.36-.22,6.71,.85,10.07,.98,3.08,3.73,6.02,6.93,6.21,1.66,.1,3.32,.07,4.98,0,3.9-.16,7.05-3.42,7.15-7.42,.05-1.99,0-3.98,0-5.98Zm-95.93-4.07c0-2.98-.02-5.96,.01-8.94,.01-.92-.13-1.35-1.23-1.63-1.02-.26-1.9-.86-3.08-.98-2.65-.26-5.08,.74-7.4,1.46-3.22,1.01-5.8,3.53-6.21,7.12-.38,3.27-.34,6.64,0,9.92,.25,2.34,1.47,4.52,3.9,5.51,3.68,1.49,7.45,1.41,11.08-.04,1.81-.73,3.18-2.04,2.97-4.48-.23-2.63-.05-5.29-.05-7.94Z"/>
    <path class="cls-1" d="M429.28,211.76c-11.82,0-23.64-.12-35.46,.07-3.49,.06-6.6-.88-9.55-2.32-1.25-.61-1.68-.42-2.86,.05-2.88,1.13-5.85,2.25-9.08,2.22-6.16-.06-12.32,.04-18.48-.04-2.93-.04-5.67-.78-7.66-3.18-1.58-1.89-2.31-4.07-2.3-6.54,.02-6.15,.02-12.31,0-18.46,0-2.72-.03-2.72-2.53-2.75-1.66-.01-3.36,.19-4.99-.05-2.61-.38-4.84,.79-6.58,2.16-1.87,1.47-2.91,3.89-2.9,6.54,.04,7.32-.09,14.64,.07,21.96,.05,2.16-.52,4.08-1.06,6.08-.36,1.35-1.13,1.92-2.59,2.35-3.68,1.07-7.39,.75-11.1,.95-2.37,.12-4.75-.52-7.15,.83-1.22,.68-3.5,.52-4.76-.21-1.34-.77-2.5-.59-3.74-.64-8.36-.32-15.52-3.39-20.85-9.86-2.44-2.96-4.01-6.73-4.63-10.49-.49-2.97-1.55-5.89-1.21-9.05,.33-3.13-.23-6.35,.17-9.46,.3-2.36,1.07-4.64,.94-7.09-.06-1.06,.89-1.66,1.84-1.97,.45-.15,.99-.05,1.49-.02,2.79,.16,5.6-.35,8.38,.26,.08,2.63,.19,5.26,.23,7.89,.04,2.83,.09,5.66-.01,8.48-.11,2.76,.87,5.35,1.35,7.97,.71,3.89,5.66,7.85,9.78,9.39,2.84,1.07,5.7,.95,8.59,.94,3.31,0,6.62-.09,9.93-.14,.82-3.42,.51-6.92,.26-10.33-.34-4.63,.71-9.08,1.28-13.54,.33-2.56,1.49-5.28,3.68-7.45,3.24-3.22,6.61-5.98,11.14-6.96,2.77-.6,5.56-1.21,8.37-1.46,2.81-.25,5.7-.37,8.47,.04,2.53,.38,4.99,.97,7.59,.96,2.39-.01,3.53,1.39,3.53,3.78,.01,7.15-.02,14.31,.01,21.46,.01,3.24,1.46,4.62,4.78,4.66,2.83,.03,5.66-.08,8.49,.04,1.37,.06,2.41-.57,3.61-.96,1.81-.59,2.13-1.7,2.12-3.32-.04-7.49-.02-14.97,0-22.46,0-.97-.25-2.22,.24-2.87,.93-1.23,1.9-2.7,3.96-2.42,1.47,.19,2.99,.03,4.49,.04,4.05,.04,5.28,1.21,5.29,5.15,.02,7.65,0,15.3,.01,22.96,0,2.41,1.12,3.75,3.52,3.81,4.33,.11,8.66,.04,12.98,.03,1.57,0,2.34-.94,2.46-2.39,.1-1.16,.02-2.33,.02-3.49,0-19.13,0-38.26,0-57.39,0-3.03-.12-2.64,2.67-2.62,3.31,.03,6.63,.07,9.94,.11,.85,3.24,.31,6.55,.36,9.82,.1,7.15,.02,14.3,.04,21.46,0,1.29,1.01,1.99,2.21,1.54,.57-.21,1.09-.61,1.59-.98,2.31-1.7,5.24-2.48,7.78-2.79,5.13-.62,10.36-2.2,15.52-1.1,3.93,.85,8.06,1.04,11.77,2.88,5.77,2.86,9.8,6.9,12.11,13.94,.76,2.33,1.04,4.65,1,7.08-.09,5.49-.24,10.99,.06,16.46,.15,2.69-1.03,5-1.19,7.57-.13,1.99-2.55,2.06-4.01,2.82-.79,.41-1.96,.07-2.96,.07h-36.46Zm11.24-12.98c5.65,0,11.3,.03,16.95-.01,2.75-.02,3.3-.63,3.34-3.5,.03-2.49-.19-5,.06-7.46,.24-2.34-1.31-4.21-1.28-6.55,.01-1.05-2.03-2.03-2.97-3.19-1.26-1.55-2.98-3.06-4.65-3.09-3.1-.06-5.89-1.65-9.06-1.23-3.17,.43-6.35,.29-9.58,.86-3.61,.64-7.04,1.18-10.24,3.11-.79,.47-1.26,.59-1.26,1.58,.04,5.98,.07,11.95-.02,17.93-.02,1.45,.61,1.57,1.77,1.57,5.65-.04,11.3-.02,16.95-.02Z"/>
    <path class="cls-1" d="M148.78,336.57c-19.65,0-39.29-.08-58.94,.09-2.83,.03-5.42-.78-8.04-1.28-1.87-.36-3.93-1.61-4.83-4.13-.85-2.38-1.93-4.58-1.91-7.2,.06-5.99,0-11.98,.04-17.97,0-1-.2-1.54-1.33-1.49-1.33,.06-2.68,.16-3.99-.01-3.76-.51-6.56,1.04-8.96,3.76-.99,1.12-1.52,2.18-1.83,3.77-1.82,9.16-.5,18.38-.84,27.56-.07,1.8-.46,3.14-1.87,4.26-.56,.44-1.05,.75-1.75,.63-3.78-.68-7.31,1.22-11.08,1.04-3.82-.18-7.66-.04-11.49-.04-6.59,0-12.74-1.46-18.43-4.96-4.53-2.79-7.77-6.46-9.42-11.55-1.07-3.31-1.92-6.58-2.21-10.14-.19-2.31-.99-4.72-.72-7.08,.43-3.69,1.04-7.32,1.03-11.07,0-2.82,1.82-4.08,4.74-4.12,1.83-.02,3.66-.06,5.49,.01,1.75,.07,2.68,.93,2.62,2.69-.05,1.56-.03,3.05-.63,4.7-.91,2.53-.92,5.67,.04,8.21,.57,1.5,.42,2.83,.61,4.23,.99,7.4,4.44,13.29,12.83,15.19,3.88,.88,7.71,.88,11.59,.91,.67,0,1.79,.23,1.92-.04,.8-1.63,2.76-.3,3.43-1.37,.45-.72,.21-1.91,.21-2.89,.01-5.49,.09-10.98-.02-16.47-.07-3.27,1.23-6.27,2.52-8.94,2.08-4.29,7.61-7.7,12.43-9.26,2.32-.75,4.64-1.07,7.09-1.01,4.16,.11,8.34,.27,12.48-.06,2.7-.22,4.99,1.12,7.58,1.18,1.35,.03,1.95,1.33,1.93,2.88-.08,6.65,.02,13.31-.05,19.96-.06,5.82-.34,6.07,5.86,6.05,26.8-.07,53.61-.03,80.41-.03,1.17,0,2.33-.04,3.5,0,1.25,.05,1.12-.76,1.22-1.61,.15-1.26-.85-2.05-1.28-2.98-1.22-2.65-2.37-5.4-3.85-7.88-4.16-6.9-9.93-11.6-18.55-11.52-3.16,.03-6.33,.05-9.49-.01-1.87-.03-2.76-.83-2.81-2.52-.07-2.33-.05-4.66,0-6.99,.03-1.53,1-2.64,2.39-2.37,2.1,.39,3.65-1.16,5.6-1.09,2,.07,4,0,5.99,.02,5.27,.06,10.32,1.27,14.99,3.58,4.63,2.28,8.35,5.62,11.36,10.01,1.6,2.33,3.44,4.58,4.54,7.15,1.08,2.53,3.27,4.66,3.11,7.7,0,.11,.26,.22,.33,.36,1.3,2.62,2.6,5.25,3.89,7.87,3.28,.57,6.59,.2,9.88,.24,2.1,.02,2.85-.81,2.86-2.97,.04-6.32,.01-12.64,.01-18.96,0-2.16-.01-4.33,0-6.49,.01-1.91,1.01-3.3,2.87-3.46,2.15-.19,4.55-.59,6.41,.16,1.16,.47,2.81,.19,3.43,1.18,.53,.84,.27,2.22,.27,3.36,.01,11.15,0,22.29,0,33.44,0,.83,.09,1.68-.02,2.49-.39,2.93-1.86,3.91-4.66,4.32-11.33,1.66-22.7,.78-34.06,.92-11.49,.14-22.97,.03-34.46,.03Z"/>
    <path class="cls-1" d="M467.6,336.57c-15.32,0-30.63-.04-45.95,.03-3.73,.02-7.26-.75-10.52-2.36-1.67-.83-2.82-.73-4.49-.1-1.7,.65-3.63,1.03-5.36,1.58-2.74,.87-5.4,.83-8.12,.84-6.66,.02-13.32,0-19.98,0-1,0-2-.07-3,.02-1.64,.15-2.54,1.4-2.31,3.05,.43,3.06,.03,9.91-1.03,12.22-2.29,4.97-6.36,7.72-11.67,8.66-2.34,.41-4.92-.74-7.07,1.02-2.03-1.39-4.35-.9-6.58-1.03-.49-.03-.65-.59-.64-1.13,.03-1.66,0-3.33,.02-4.99,.02-1.48-.45-3.32,.25-4.35,.78-1.16,2.85-.06,4.17-.54,1.85-.67,3.67-.88,5.6-.99,1.9-.11,3.8-2.43,3.95-4.44,.08-.99,.01-2,.01-2.99v-43.92c0-1.16-.07-2.33,.02-3.49,.08-1.09,.92-1.92,1.84-1.96,3.32-.14,6.66-.11,9.99-.03,1.29,.03,2.05,.89,2.13,2.2,.06,.99,.01,2,.01,2.99,0,7.82,.02,15.64-.02,23.46,0,1.49-.1,2.39,2.03,2.35,8.82-.17,17.65-.06,26.47-.09,.93,0,1.83,.2,2.77-.62,.77-.68,1.81-.68,1.78-2.24-.13-7.32,0-14.64-.07-21.96-.06-6.26-.2-6.27,6.26-6.12,1.33,.03,2.66-.02,4,0,3.32,.06,3.73,.42,3.74,3.61,.03,5.99,0,11.98,0,17.97,0,1.83-.01,3.66,0,5.49,.02,2.63,1.15,3.82,3.98,3.86,5.16,.07,10.32,.02,15.48,.02,13.82,0,27.64,0,41.45,0,2.26,0,2.04,.03,1.2-2.4-1.01-2.94-2.39-5.85-2.15-9.09,.23-3.2,0-6.33,.81-9.61,1.67-6.73,6.68-11.87,12.31-13.85,4.1-1.44,8.25-2.29,12.66-2.04,4.53,.26,9.09-.23,13.59,.98,1.69,.45,2.64,1.01,2.59,2.84-.05,1.83,.09,3.67-.03,5.49-.2,3.09-1.54,4.02-4.63,3.78-.96-.08-1.36-1.06-2.08-1.01-4.53,.31-9.08-.74-13.6,.9-5.26,1.91-7.64,4.72-7.66,10.08,0,1.16,.08,2.34-.02,3.49-.23,2.66,.68,4.87,1.91,7.21,1.24,2.35,2.67,3.32,5.26,3.28,6.66-.1,13.32,.02,19.98-.07,1.59-.02,1.92,.53,1.88,1.98-.1,3.32-.2,6.66,.03,9.98,.14,2.02-.7,2.1-2.29,2.09-16.32-.05-32.63-.03-48.95-.03Z"/>
    <path class="cls-1" d="M843.54,170.78c0,11.15,.01,22.3-.02,33.45,0,1.12,.21,2.24-.27,3.37-.99,2.32-3.21,4.09-6.21,4.13-8.33,.11-16.65,.03-24.98,.06-.72,0-1.18-.5-1.73-.65-1.8-.53-3.44-1.35-5.14-2.08-2.23-.94-2.88,2.01-4.57,2.84-1.42,.7-3.2,.33-4.32,1.65-4.19-.13-8.25,2.82-12.62,.3-1.45-.83-3.4-.04-5.24-.53-2.83-.75-4.89-2.7-7.48-3.7-.48-.18-.63-1.09-1.44-.3-2.36,2.3-5.38,2.53-8.46,2.46-1-.02-2-.05-3,0-3.78,.19-7.58-.45-11.33,.37-.04,3.64-.04,7.29-.13,10.93-.07,2.79-1.12,5.06-2.98,7.28-4.1,4.89-9.3,6.55-15.39,6.38-1.83-.05-3.66,.03-5.5-.02-2.39-.06-3.07-.74-3.08-3.26-.01-2.8,.11-5.6,.18-8.41,2.6-.67,5.25-.19,7.87-.29,3.23-.12,5.64-2.32,5.91-5.63,.08-.99,.01-2,.01-2.99,0-14.64,0-29.29-.01-43.93,0-1.66-.09-3.19,1.46-4.43,.85-.68,1.59-.99,2.63-.96,2.16,.05,4.33,0,6.49,.02,1.71,.01,3.17,1.23,3.39,2.95,.13,.98,.02,1.99,.02,2.99,0,7.99,.02,15.98-.02,23.96,0,1.32,.03,2.15,1.77,2.08,3.32-.14,6.66-.13,9.99,0,1.25,.05,2.07-.75,3.1-.99,1.89-.44,2.19-1.63,2.17-3.26-.05-3.16,.16-6.34-.06-9.48-.28-3.94,.82-7.64,2.18-11.1,1.31-3.35,3.77-6.1,7-8.24,3.99-2.64,8.31-3.64,12.89-3.88,4.16-.22,8.16,.21,12.21,1.84,5.79,2.33,10.8,8.39,11.85,14.35,.95,5.38,.8,10.71,.89,16.08,.04,2.61,.18,2.33,3.2,3.71,4.01,1.83,8.09,.57,12.11,.85,1.57,.11,2.67-1.74,2.67-3.61,0-18.8,0-37.61,0-56.41,0-1-.04-2,0-2.99,.1-1.85,.86-2.74,2.56-2.78,3-.07,6-.07,8.99,0,1.49,.03,2.38,.91,2.41,2.43,.05,2.16,.01,4.33,.01,6.49v28.95Zm-45.97,17.7c0-1.99-.21-4.01,.05-5.97,.34-2.48-1.51-4.07-2.23-6.09-.26-.73-2.1-1.77-3.65-1.6-.56,.06-.85-.38-1.27-.56-3.3-1.39-6.34-.26-8.89,1.63-2.13,1.58-3.5,3.86-3.08,6.91,.2,1.49,.72,3.29-.89,4.6-.24,.2-.24,1.11,0,1.43,1.32,1.72,.87,3.68,.98,5.59,.16,2.89,1.5,4.91,4.11,6.42,2.51,1.46,5.07,.84,7.6,.88,3.45,.05,7.03-2.78,7.25-7.27,.1-1.99,.02-3.98,.02-5.97Z"/>
    <path class="cls-1" d="M560.74,170.31c0,10.98,.01,21.96-.02,32.93,0,1.12,.54,2.48-.35,3.31-1.16,1.09,.09,3.24-1.73,3.77-2.09,.61-4.25,1.31-6.4,1.37-6.32,.18-12.65,.06-18.97,.07-2.43,0-2.35,.03-2.51,2.28-.32,4.4-1.25,8.6-3.32,12.6-2.82,5.43-7.7,7.86-13.19,8.95-3.25,.64-6.57,1.55-10.05,1.2-3.3-.32-6.65-.12-9.98-.04-1.2,.03-2.09-.49-3.13-.92-.91-.38-1.32-.55-1.3-1.57,.06-2.66,.11-5.33-.02-7.98-.07-1.48,.65-1.57,1.78-1.56,3.83,.04,7.68-.24,11.48,.1,2.86,.26,5.57-.52,8.02-1.29,2.82-.89,6.13-2.57,5.72-6.74-.06-.62,.52-.81,.66-1.23,.57-1.71-.84-3.78-2.57-3.8-2.83-.03-5.66,0-8.49-.01-4.74-.02-11.45-2.62-15.01-5.94-2.35-2.2-3.46-5.14-4.58-8.08-1.37-3.61-.76-7.37-1.04-11.06-.31-4.1,.5-7.99,2.12-11.62,1.7-3.83,4.36-7.08,8.11-9.21,4.12-2.35,8.32-4.15,13.32-4.19,1.89-.02,4.18-1.35,6.04-.69,2.89,1.03,5.73,.8,8.62,.87,1.75,.04,3.14,1.33,5.09,1.15,1.22-.11,1.77,1.48,1.76,2.99-.08,7.15-.04,14.3-.04,21.46,0,3.33,.03,6.65-.02,9.98-.02,1.08,.38,1.41,1.43,1.39,3.66-.05,7.33,.06,10.99-.05,2.4-.07,3.58-1.42,3.58-3.75,0-18.79,0-37.59,0-56.38,0-1-.05-2,.01-2.99,.1-1.8,.89-2.68,2.62-2.72,2.83-.07,5.66-.07,8.49,0,2.09,.05,2.83,.83,2.86,2.98,.05,3.82,.01,7.65,.01,11.48v22.95Zm-42.97,15.98c0-1.5,.07-3-.02-4.49-.16-2.61,.44-5.25-.33-7.83-2.64-.05-5.28-.14-7.92-.15-4.92,0-8.07,2.65-9.79,7.43-1.09,3.03-1.2,6.08-.81,9.07,.27,2.04,.89,4.21,2.68,5.87,2.18,2.01,4.53,2.82,7.43,2.62,2.8-.19,5.61-.14,8.41-.19,.78-2.75,.15-5.56,.32-8.34,.08-1.32,.01-2.66,.01-3.99Z"/>
    <path class="cls-1" d="M678.21,211.76c-10.98,0-21.97,0-32.95,0-2.54,0-2.76,.05-2.52,2.7,.34,3.78-.65,7.39-1.1,11.06-.54,4.36-5.54,9.02-10.1,10.24-4.65,1.23-9.37,.94-14.08,.94-1.8,0-2.68-.87-2.73-2.6-.07-2.33-.1-4.66,.01-6.98,.07-1.42,.87-2.38,2.46-2.38,2.16,0,4.34-.14,6.49,.05,1.62,.14,2.59-1.04,3.9-1.51,.48-.17,1.19-.68,1.11-1.49-.25-2.6,1.13-4.91,1.09-7.57-.19-14.47-.1-28.94-.09-43.4,0-3.54,.42-3.94,3.87-3.99,2-.03,4-.04,5.99,0,2.41,.06,3.1,.73,3.11,3.23,.04,7.98,0,15.96,.02,23.95,0,1.47-.46,3.44,.29,4.3,1.03,1.17,3.1,.43,4.72,.44,17.48,.03,34.95,.02,52.43,.02,2.47,0,2.49-.03,2.51-2.27,.02-2.66,0-5.32,0-7.98,0-6.41-4.31-11.85-12.15-12.65-4.83-.49-9.62-1.45-14.56-1.13-4.97,.32-9.98,.08-14.97,.07-1.4,0-3.09-1.25-3.25-2.59-.16-1.31-.36-2.76,.02-3.97,1.29-4.12,1.52-8.5,3.86-12.38,2.45-4.07,4.21-8.56,6.4-12.8,1.49-2.88,3.64-5.39,4.71-8.53,.46-1.34,1.7-1.76,3.18-1.7,2.49,.11,4.99,.01,7.49,.04,2.21,.02,2.84,.78,2.25,2.99-.27,1.02-.9,1.95-1.38,2.91-3.64,7.31-7.3,14.61-10.94,21.92-1,2.01-.96,2.21,1.25,2.09,3.04-.16,6.19,.78,9.09-.93,.37-.22,1.19-.25,1.45,0,2,1.96,4.42,.71,6.61,.93,9.28,.94,17.07,4.45,21.87,12.82,1.86,3.24,2.78,7.03,2.96,10.71,.33,6.97,.12,13.96,.09,20.95-.01,2.87-1.59,4.47-4.45,4.48-11.32,.03-22.64,.01-33.95,.01Z"/>
    <path class="cls-1" d="M59.1,549.24c0,11.65,.01,23.29,0,34.94,0,3.59-1.39,4.97-4.95,4.99-3.5,.03-6.99,.05-10.49,0-2.7-.04-4.65-.95-5.94-3.73-1.23-2.65-2.11-5.44-3.47-8.06-1.25-2.41-3.1-4.64-3.3-7.66-.05-.81-1.25-2.14-1.75-3.21-4.21-9.07-8.04-18.31-12.6-27.22-.65-1.27-.11-2.9-1.42-3.94-.21-.17-.12-1.01-.65-.9-.41,.09-.79,.61-1.06,1.02-.68,1.04-.31,2.24-.31,3.35-.03,15.14-.02,30.28-.02,45.42,0,1.16-.05,2.33,.02,3.49,.06,1.02-.24,1.49-1.35,1.47-3-.05-6,.03-8.99-.04-1.75-.04-2.54-.92-2.66-2.69-.05-.83,0-1.66,0-2.5,0-21.8-.02-43.59,.03-65.39,0-1.55-.54-3.15,.76-4.69,1.5-1.77,3.65-2.24,5.47-2.44,2.28-.25,4.89-1.09,7.14,.67,.42,.33,1.3,.26,1.91,.14,3.24-.68,4.65,1.17,5.68,3.81,2.24,5.73,4.91,11.29,7.41,16.9,2.25,5.05,4.31,10.23,6.99,15.07,1.43,2.6,2.36,5.36,3.53,8.04,1.1,2.53,2.84,4.74,3.24,7.68,.24,1.7,1.74,3.24,2.71,4.83,.14,.23,.46,.35,.69,.52,.13-.28,.38-.55,.38-.83,.04-1.33,.02-2.66,.02-3.99,0-16.47,0-32.94,0-49.42,0-2.54,.03-2.58,2.71-2.57,3.31,.01,6.62,.09,9.93,.14,.76,3.26,.3,6.56,.32,9.84,.08,8.98,.03,17.97,.03,26.95Z"/>
    <path class="cls-1" d="M59.1,428.52c0,11.31,.03,22.63-.04,33.94,0,1.38,.57,2.84-.67,4.22-1.11,1.24-3.13-.1-3.83,1.68-4.36-.26-8.79,.64-13.1-.93-1.2-.44-1.84-.96-2.37-2.06-1.93-4.03-4.49-7.84-5.82-12.05-1.37-4.31-4.72-7.73-5.14-12.36-3.25-4.76-4.5-10.49-7.41-15.4-1.82-3.07-2.18-6.77-4.45-9.68-.5-.64-1.07-2.28-1.5-2.19-1.26,.25-.59,1.57-.6,2.41-.04,14.81-.03,29.62-.03,44.42,0,1.33,0,2.66,0,3.99-.02,2.42-1.14,3.92-3.51,3.78-2.69-.16-5.52,1.04-8.15-.83-.64-.46-1.45-.41-1.34-1.48,.05-.49,0-1,0-1.5,0-22.96,0-45.92,.03-68.88,0-1.08-.53-2.3,.59-3.25,1.1-.94,1.87-2.06,3.73-1.94,3.81,.25,7.66,.12,11.48,.05,1.68-.03,2.51,.54,3.23,2.2,1.77,4.1,4.36,7.88,5.8,12.07,1.46,4.26,4.52,7.74,5.34,12.3,.33,1.88,1.93,3.5,2.76,5.32,3.38,7.42,6.69,14.87,10,22.31,.31,.71,1.26,1.09,1.04,2.08-.03,.13,.37,.35,.57,.54,.13-.28,.37-.55,.38-.83,.04-1.33,.02-2.66,.02-3.99v-46.42c0-1.16-.05-2.33,.01-3.49,.06-1.11,.9-1.71,1.81-2.03,.59-.21,1.32-.05,1.98-.04,2.97,.07,5.94,.14,8.9,.21,.61,2.94,.25,5.91,.26,8.87,.06,9.65,.02,19.3,.02,28.95Z"/>
    <path class="cls-1" d="M286.94,292.66c0,8.32-.24,16.64,.09,24.95,.19,4.94-1.17,9.67-1.12,14.56,.02,1.69-2.11,3.5-4.01,3.37-4.59-.33-8.94,1.51-13.58,1.12-4.46-.38-8.98-.02-13.48-.12-1.55-.03-1.98,.46-1.9,1.95,.12,2.32,.21,4.67,0,6.98-.64,7.03-2.95,11.85-10.64,14.39-.91,.3-1.76,.67-2.71,.67-4,.02-7.99-.05-11.99,.04-1.35,.03-1.73-.44-1.64-1.7,.09-1.32,0-2.66,.02-3.99,.02-1.65-.51-3.71,.27-4.83,.87-1.25,3.07-.4,4.68-.47,2.08-.09,3.86-1.26,6.08-1.16,2.01,.09,2.21-2.42,2.87-3.9,.43-.97,.08-2.29,.08-3.46v-43.92c0-1,0-2,0-2.99-.02-1.6,.96-2.26,2.37-2.5,.32-.06,.66-.02,1,0,3.13,.08,6.26,.17,9.38,.25,.08,2.96,.22,5.92,.23,8.88,.04,6.15-.02,12.31,.02,18.46,.02,2.76,.63,3.32,3.5,3.34,4.49,.03,8.99,.04,13.48,0,2.16-.02,2.94-.76,2.97-2.87,.06-3.66,.02-7.32,.02-10.98,0-16.14,0-32.27,0-48.41,0-2.99-.16-2.64,2.66-2.63,2.66,0,5.33-.04,7.99,.01,2.76,.05,3.33,.63,3.33,3.51,.02,10.48,0,20.96,0,31.44Z"/>
    <path class="cls-1" d="M279.94,550.31v-32.91c0-1-.03-2,0-2.99,.04-1.14,1.03-2.14,1.74-2.02,3.17,.52,5.98-1.2,9.08-1.14,7.15,.15,14.3,.03,21.46,.05,5.13,.02,9.94,1.28,14.3,4,4.74,2.95,8.09,6.77,9.53,12.51,1.07,4.25,1.27,8.51,.68,12.56-.94,6.52-3.79,12.36-10.11,15.61-5.38,2.77-11.03,4.41-17.21,4.29-4.77-.1-9.57-.48-14.33,.28-.05,4.63-.12,9.26-.15,13.9-.03,3.99,.04,7.98-.02,11.97-.03,1.81-.88,2.7-2.6,2.73-3.33,.07-6.65,.08-9.98,0-1.44-.04-2.37-.88-2.39-2.45-.01-1,0-1.99,0-2.99v-33.4Zm14.99-14.47c0,3.66,.03,7.31-.02,10.97-.01,1.03,.28,1.46,1.37,1.45,4.32-.04,8.66-.2,12.97,.05,2.37,.14,4.48-.64,6.41-1.47,3.85-1.66,6.58-4.49,6.26-9.21-.09-1.32-.05-2.66,0-3.99,.17-5.58-3.77-9.78-10.32-10.29-4.96-.39-9.98-.05-14.97-.1-1.21-.01-1.77,.22-1.73,1.61,.1,3.65,.03,7.31,.03,10.97Z"/>
    <path class="cls-1" d="M606.2,511.3c2.33,0,4.69,.23,6.98-.05,3.64-.45,6.96,1.33,10.58,1.18,1.48-.06,3.21,1.23,3.54,3.04,.46,2.48,1.12,5-.52,7.48-.45,.67-.41,1.37-1.48,1.36-3.66-.05-7.47,.63-10.94-.19-3.75-.89-7.43-.44-11.1-.89-2.54-.31-4.58,1.7-7.07,1.09-.94,1.24-2.93,1.03-3.53,2.95-1.16,3.67-1.41,5.56,.22,7.58,.86,1.06,2.2,1.8,3.32,2.64,5.31,3.96,11.59,5.88,17.41,8.69,5.11,2.47,8.96,6.27,12.66,10.29,1.06,1.15,.96,3.31,1.91,4.64,1.2,1.66-.23,3.54,.95,5.13,1.22,1.64,.39,3.19-.36,4.87-.62,1.38-.21,2.97-.87,4.62-2.26,5.57-4.58,8.32-8.59,10.27-3.47,1.7-7.07,2.96-11.12,3.45-3.37,.41-6.73,.77-10.1,.72-5.44-.08-10.78-1.15-16.14-1.97-1.42-.22-2.31-1.03-2.24-2.63,.06-1.33-.08-2.67,.03-3.99,.16-1.77-.93-4.39,.53-5.1,1.69-.82,4.23-.77,6.2,.13,.77,.35,1.44,.61,2.25,.61,5.66,0,11.32,.08,16.97-.03,4.03-.07,7.47-2.81,8-6.08,.87-5.4-.31-7.46-5.21-10.91-5.24-3.69-11.21-5.92-16.78-8.92-5.28-2.85-9.89-6.43-12.91-11.67-.65-1.12-1.4-2.43-1.14-4.05,.19-1.18,.58-2.63-.75-3.67-.26-.2-.33-1.02-.14-1.38,1.35-2.74,.87-5.9,2-8.65,1.07-2.62,3.01-4.86,5.3-6.2,4.15-2.43,8.6-4.45,13.66-4.35,2.83,.06,5.66,.01,8.49,.01Z"/>
    <path class="cls-1" d="M580.4,336.57c-5.66,0-11.32,.03-16.98-.02-1.24-.01-1.72,.28-1.71,1.63,.02,3.09,.42,5.98,2.56,8.45,1.31,1.51,3.92,4.03,5.28,3.83,2.71-.39,4.96,1.54,7.59,1.09,1.37-.23,1.71,.46,1.61,1.69-.08,.99,.12,2.02-.05,2.99-.22,1.2,1.97,1.94,.79,2.94-1.41,1.18,.44,1.52,.27,2.32-.19,.85,.46,2.02-1.25,2.07-5.04,.14-15.19-.86-21.06-4.68-1.22-.79-2.58-1.42-3.38-2.58-2.77-4-5.22-8.19-5.3-13.26-.07-4.82-.04-9.65,0-14.47,.01-1.09-.26-2.17,.62-3.25,.66-.82,.68-1.91,2.25-1.78,2.31,.2,4.66,.05,6.99,.05,1.22,0,1.46-.88,.96-1.6-4.43-6.3-2.37-13.46-2.84-20.29,1.28-1.43,1.21-3.41,2.27-5.08,2.87-4.55,6.75-7.54,11.63-9.32,2.33-.85,4.73-1.7,7.3-1.67,4.16,.04,8.33,.2,12.48-.06,2.35-.15,4.24,1.46,6.59,1.17,.68-.08,1.69,.9,1.7,2.06,0,2.49,.08,4.99-.03,7.48-.08,1.76-1.73,2.77-3.5,2.31-5.22-1.36-10.62-1.17-16.18-.07-2.05,.41-3.98,.55-5.72,1.95-1.74,1.4-2.73,3.16-3.11,5.22-1.08,5.71-.71,11.09,3.68,15.6,1.07,1.1,2.11,1.32,3.49,1.31,6.66-.04,13.32,.04,19.97-.06,1.49-.02,2.22,.26,2.74,1.79,.76,2.25,.83,8.22,.02,10.43-.52,1.41-1.11,1.89-2.7,1.85-5.65-.15-11.32-.06-16.97-.06Z"/>
    <path class="cls-1" d="M666.04,443.41c-5.32,0-10.64,.02-15.96-.02-1.06,0-1.26,.39-1.45,1.4-.59,3.09,.78,5.74,2.21,8.06,1.4,2.28,4.3,3.32,6.92,3.45,5.64,.29,11.3-.01,16.95,.16,1.44,.04,2.2-1.14,3.58-1.12,2.31,.03,3.29,.73,3.36,3.05,.05,1.66,.02,3.32,0,4.98-.01,2.6-.89,3.59-3.35,4.02-4.16,.72-8.32,1.21-12.56,1.02-2.99-.14-5.99,.05-8.98-.04-5.74-.17-10.75-1.91-14.92-6.19-3.07-3.15-5.52-6.43-6.74-10.71-.33-1.15-.38-2.22-.39-3.3-.07-5.48-.05-10.96-.03-16.44,.03-8.39,3.52-14.71,10.56-19.56,3.19-2.2,6.65-3.06,10.01-3.5,6.19-.82,12.21,.12,17.89,3.6,4.99,3.05,7.69,7.45,9.43,12.54,1.94,5.65,.91,11.65,1.08,17.5,.04,1.29-.85,1.13-1.66,1.13-5.32,0-10.64,0-15.96,0Zm-7.72-9.98c3.32,0,6.65,0,9.97,0,.66,0,1.3,.05,1.39-.91,.81-8.66-5.76-13.55-13.53-11.84-2.6,.57-5.28,2.22-6.61,5.41-.86,2.06-.33,4.15-1.13,6.01-.37,.87-1.04,1.31,.43,1.32,3.16,.03,6.32,0,9.48,0Z"/>
    <path class="cls-1" d="M505.01,443.41c-4.99,0-9.98,.04-14.97-.03-1.54-.02-2.22,.04-2.38,2.05-.24,2.97,.97,5.44,2.4,7.5,1.47,2.11,4.17,3.36,6.95,3.42,5.15,.12,10.31,.07,15.47,.02,2.22-.02,4.21-1.47,6.58-1.04,1.12,.2,1.82,.2,1.74,1.63-.12,2.15-.02,4.32-.03,6.48-.01,2.54-.97,3.99-3.42,3.82-2.53-.18-4.55,1.52-7.09,1.18-2.45-.33-4.98-.07-7.47-.07s-4.99,.11-7.48-.02c-5.36-.29-10.24-1.79-14-5.94-1.95-2.15-4.43-3.89-5.47-6.72-1.02-2.78-2.06-5.58-2.04-8.63,.03-5.65,.03-11.3,0-16.95-.02-5.12,2.27-9.48,5.25-13.25,4.59-5.81,11.05-8.22,18.41-8.42,5.37-.15,10.29,.99,14.88,3.9,.76,.48,1.65,.89,2.33,1.53,5.35,5.03,8.42,11.08,8.09,18.58-.16,3.61,.42,7.24-.35,10.82-3.47,.05-6.94,.11-10.42,.14-2.33,.02-4.66,0-6.98,0Zm-6.45-9.98c2.33,0,4.66,.08,6.98-.03,1.41-.06,3.15,.71,4.17-.57,.82-1.03-1.53-1.69-.94-3.02,.06-.14,.02-.33,0-.49-.33-3.9-4.48-8.35-8.31-8.86-3.12-.41-5.9,.41-8.69,1.91-2.12,1.14-2.21,3.25-3.32,4.85-1.27,1.84-.95,3.99-.47,5.66,.35,1.23,2.66,.47,4.09,.53,2.16,.09,4.32,.02,6.48,.02Z"/>
    <path class="cls-1" d="M669.83,564.22c-5.16,0-10.31,.03-15.47-.02-1.23-.01-1.77,.25-1.71,1.62,.18,4.67,1.68,8.66,6.07,10.81,1.91,.94,4.2,1.4,6.33,1.48,2.52,.1,5.23,.84,7.57-.91,4.32,0,8.65,.01,12.97,0,.91,0,1.07,.49,1.07,1.23,0,2.49,.02,4.99-.01,7.48-.02,1.33-.83,2.26-2.07,2.23-1.52-.04-2.81,.99-4.08,.96-6.22-.12-12.32,1.88-18.54,1.08-10.29-1.32-18.12-6.2-21.87-16.2-.79-2.11-1.49-4.46-1.43-6.9,.11-4.32-.15-8.65,.07-12.96,.41-8.13,3.26-15.27,9.98-20.23,2.7-1.99,5.93-3.69,9.45-3.49,1.66,.09,2.58-1.21,4.08-1.13,5.55,.27,11.12,1.11,15.71,4.16,3.5,2.33,6.69,5.49,7.79,10.08,.34,1.41,1.73,2.62,1.88,4.18,.45,4.67,1.55,9.3,1.03,14.04-.18,1.67-.97,2.47-2.86,2.49-5.32,.05-10.64,.02-15.96,.02Zm-6.66-8.99c2.66,0,5.31,0,7.97,0,3.58-.01,4.23-.8,3.53-4.23-1.75-.88-.19-3.29-1.93-4.18-1.11-3.77-4.56-4.91-7.59-5.42-6.74-1.14-12.47,4.28-12.47,11.09,0,2.72,0,2.73,2.52,2.75,2.66,.02,5.31,0,7.97,0Z"/>
    <path class="cls-1" d="M361.88,445.33c0,6.49-.06,12.97,.04,19.46,.02,1.64-.3,2.58-2,3.17-.81,.28-1.81,.68-2.28,.35-2.31-1.64-5.15,1.66-7.35-.89-.27-.31-1.47,.06-1.38-.87,.4-3.86-2.01-1.11-2.64-.92-2.34,.7-4.5,2.31-6.86,2.63-3.43,.47-7.05,.55-10.45-.01-2.84-.47-5.81-1.26-7.84-4.01-1.8-2.43-4.58-4.2-4.21-7.76-2.46-4.05-.76-8.23,.16-12.11,.86-3.59,3.9-6.02,7.19-7.99,3.22-1.92,6.5-3.01,10.28-3,2.53,.01,4.9-1.28,7.58-1.03,1.87,.17,4.73,1.13,5.55-.53,.92-1.87,.64-4.67,.04-6.83-.36-1.3-1.32-2.83-2.62-3.92-.94-.8-1.84-.58-2.77-.59-6.83-.03-13.65-.06-20.48,.01-1.44,.01-2.12-.27-1.98-1.87,.14-1.48,0-2.99,.04-4.49,.03-1.13-.28-2.75,.33-3.28,.95-.84,2.53-1.23,3.88-1.32,6.01-.44,11.99-1.53,18.06-1.07,3.19,.24,10.9,2.34,13.26,4.14,2.73,2.08,4.36,4.97,5.44,8.21,.67,1.98,1.07,3.94,1.03,6.08-.12,6.15-.04,12.31-.04,18.46Zm-13.99,3.29c0-.83,0-1.65,0-2.48q-.02-3.71-3.51-3.73c-1.99,0-3.99,.15-5.96-.04-3.26-.31-5.79,1.1-7.42,3.57-1.61,2.45-1.52,5.45-.73,8.31,.5,1.8,2.01,2.64,3.59,3.09,2.08,.59,9.46-.2,11.49-.95,1.98-.73,2.52-1.52,2.54-3.8,.01-1.32,0-2.65,0-3.97Z"/>
    <path class="cls-1" d="M121.06,560.06c0,2.49,.05,4.99,0,7.48-.16,7.17-4.78,16.3-12.35,19.78-2.73,1.26-5.62,1.97-8.35,2.63-2.76,.66-6.17,1.2-9.01-.77-2.06,.81-3.8-.63-5.53-1.15-3.55-1.05-6.37-3.57-8.79-6.42-2.25-2.64-4.27-5.75-4.69-8.96-.41-3.15-1.43-6.27-1.27-9.53,.16-3.15-.55-6.46,.19-9.43,.82-3.27,1.32-6.63,2.52-9.89,1.48-4,3.77-7.15,6.99-9.45,3.4-2.44,7.19-4.62,11.74-4.07,1.38,.17,2.18-1.05,3.57-1.12,2.18-.11,3.9,1.55,6.08,1.12,2.23-.44,3.81,1.16,5.67,1.94,6.3,2.67,10.22,7.4,12.2,13.8,.7,2.27,1.27,4.59,1.07,7.06-.18,2.31-.04,4.65-.04,6.98Zm-13.99-.16c0-2.32-.28-4.69,.07-6.96,.44-2.82-1.27-4.84-2.17-7.11-.69-1.75-2.65-3.08-4.41-3.44-2.1-.42-4.4-2.48-6.61-.14-4.6,0-6.7,3.59-7.68,6.86-2.09,7.02-1.78,14.38-.02,21.48,.47,1.87,1.59,4,3.88,5.33,3.84,2.23,7.39,3.22,11.08,1.2,3.51-1.92,5.69-5.09,5.85-9.27,.1-2.65,.02-5.31,.02-7.96Z"/>
    <path class="cls-1" d="M837.54,438.59c0,1.83-.02,3.66,0,5.49,.06,4.66-1.43,8.99-3.36,13.07-2.43,5.14-6.97,8.25-12.14,10.12-4.78,1.74-14.03,1.94-19.09,.04-6.32-2.38-11.16-6.59-13.35-13.2-1.3-3.91-2.37-7.89-2.08-12.13,.21-2.98,.2-5.99,0-8.97-.27-3.92,1.7-7.36,2.1-11.12,3.24-4.85,6.5-9.5,12.54-11.52,4.02-1.34,7.97-2.12,12.19-1.92,5.84,.27,11.07,2.28,15.48,5.95,2.38,1.98,3.65,5.01,5.06,7.83,1.59,3.16,2.5,6.4,2.62,9.89,.08,2.16,.01,4.32,.01,6.49Zm-35.97-.68c0,2.66-.06,5.31,.01,7.97,.1,3.59,2.32,6.03,4.48,8.63,1.82,2.2,4,1.85,6.24,1.88,1.16,.02,2.33,.02,3.49,0,.48,0,1.12,.08,1.4-.18,1.82-1.7,3.55-3.49,5.31-5.25-.6-1.88,1.28-3.12,1.13-5.05-.3-3.96-.14-7.96-.07-11.95,.04-2.1-.35-4.06-.95-6.08-1.09-3.67-3.47-6.49-6.85-7.23-3.87-.84-8.23-.78-11.03,3.16-1.73,2.43-3.43,4.89-3.2,8.15,.14,1.98,.03,3.98,.03,5.98Z"/>
    <path class="cls-1" d="M256.96,438.96c0-8.65-.02-17.3,0-25.95,0-2.91,.56-3.49,3.31-3.54,2.66-.05,5.33,.04,7.99-.03,1.25-.04,1.88,.28,1.68,1.64-.24,1.64,.94,1.32,1.9,1.4,1.05,.08,1.74-.76,2.53-1.12,6.98-3.2,10.7-3.35,18.4-2.05,3.36,.57,5.73,1.95,7.72,4.3,1.83,2.15,2.9,4.64,3.58,7.52,.61,2.57,.82,5.05,.82,7.61,.02,12.15,.01,24.29,0,36.44,0,1.81-.04,1.81-1.91,2.62-2.15,.93-7.15,.51-9.43-.16-2.21-.65-2.69-1.82-2.68-3.88,.07-11.98,.04-23.96,.03-35.94,0-1.43-.29-2.72-.85-4.14-.88-2.22-2.74-2.91-4.33-3.1-3.34-.39-6.82-.5-10.05,.88-1.56,.67-3.45,1.18-4.42,2.39-.74,.93-.32,2.83-.33,4.3-.02,11.98,0,23.96-.02,35.94,0,.98,.24,2.17-.22,2.88-.68,1.06-2.71-.3-3.36,1.4-2.5,0-5,.12-7.49-.04-1.75-.11-2.91-1.65-2.91-3.41,0-8.65,0-17.3,0-25.95Z"/>
    <path class="cls-1" d="M117.06,444.66c0,6.81,0,13.62,0,20.43,0,1.39-1.26,3.17-2.58,3.24-2.65,.13-5.33,.2-7.94-.14-.61-.08-1.8-.56-2.41-1.28-1.49-1.77-1.48-1.83-3.12-.95-3.12,1.66-6.37,2.71-9.97,2.44-1.65-.12-3.35-.21-4.98,.01-5.91,.81-14.14-6.45-13.98-13.49,.02-.77,.35-1.62-.3-2.36-.97-1.12-.73-2.11-.04-3.45,.61-1.19,.04-2.95,.5-4.27,1.93-5.46,5.93-8.89,11.44-10.37,5.75-1.55,11.61-2.55,17.61-2.02,1.68,.15,1.91-.64,1.81-2.02-.1-1.32-.15-2.67,0-3.98,.21-1.81-.45-3.04-1.74-4.31-1.28-1.27-2.52-1.76-4.32-1.73-6.81,.11-13.63,.03-20.45,.06-.97,0-1.57-.13-1.52-1.29,.06-1.66,0-3.32,.02-4.98,.02-1.14-.31-2.87,.27-3.29,1.18-.85,2.93-1.5,4.34-1.33,3.17,.38,5.98-1.28,9.08-1.13,2.99,.14,6-.16,8.97,.07,5.95,.47,11.32,2.4,15.64,6.76,2.48,2.5,3.49,5.67,3.59,8.96,.22,6.8,.07,13.62,.07,20.43Zm-19.3-2.25c-1.5,0-3.01,.14-4.49-.03-5.63-.64-9.21,5.43-7.89,10.8,1.62,.55-.29,2.67,1.49,3.22,1.34,.42,2.54,1.21,4.09,1.01,1.31-.17,2.7-.24,3.98,0,2.94,.58,5.18-1.19,7.62-2.14,.87-.34,2.11-1.13,1.04-3.09-1.21-2.23-.76-5.06-.17-7.6,.51-2.15,.61-2.14-1.18-2.17-1.5-.03-2.99,0-4.49,0Z"/>
    <path class="cls-1" d="M534.76,438.86c0-8.65-.02-17.3,.01-25.95,0-2.82,.61-3.4,3.41-3.44,2.66-.04,5.33,.07,7.99-.04,1.41-.06,1.72,.54,1.59,1.74-.18,1.71,1.09,1.25,1.99,1.28,1,.04,1.78-.75,2.5-1.16,3.55-2.03,7.3-2.89,11.33-2.84,2,.03,4.02-.17,5.99,.06,1.83,.22,3.34,1.48,5.12,2.09,2.78,.95,4.83,3.48,5.73,6.19,1.17,3.54,2.39,7.13,2.36,11.03-.12,12.31-.04,24.62-.05,36.92,0,2.44-.75,3.41-3.23,3.59-2.48,.18-4.99,.12-7.49,0-1.49-.07-3.22-2.06-3.25-3.66-.06-3.33-.02-6.65-.02-9.98,0-8.98,.02-17.96,0-26.94-.01-5.12-2.16-7.13-7.2-7.35-3.94-.17-7.49,.76-10.92,2.62-1.18,.64-1.95,.95-1.93,2.67,.14,12.47,.03,24.95,.12,37.42,.02,1.98-.31,3.55-1.98,4.69-.26,.18-.51,.54-.77,.54-2.98,0-5.97,.1-8.92-.18-1.72-.16-2.36-1.39-2.36-3.36,0-8.65,0-17.3,0-25.95Z"/>
    <path class="cls-1" d="M147.04,566.89c0,6.31,.03,12.63-.01,18.94-.02,2.76-.63,3.31-3.5,3.35-2.66,.03-5.32,0-7.98,0-1.6,0-2.3-.96-2.48-2.38-.1-.82-.02-1.66-.02-2.49v-49.36c0-.83-.05-1.67,.01-2.49,.1-1.3,.87-2.14,2.16-2.18,2.83-.08,5.66-.11,8.48,.01,1.4,.06,2.4,.89,2.33,2.49-.07,1.72,.29,1.3,1.48,.59,3.91-2.33,8.4-3.12,12.76-4.06,4.2-.9,8.06,1.44,12.13,1.94,3.61,3.41,6.94,6.69,7.78,12.21,1.02,6.71,.68,13.37,.8,20.05,.13,6.81,.03,13.63,.03,20.44,0,1,.05,2-.01,2.99-.08,1.31-.85,2.16-2.14,2.19-3.16,.08-6.32,.1-9.48-.01-1.41-.05-2.37-.88-2.36-2.48,.01-3.16,0-6.31,0-9.47,0-9.14-.09-18.28,.05-27.42,.04-2.81-.67-5.25-2.9-6.74-2.07-1.39-4.7-2.43-7.18-1.65-1.39,.44-2.8,.5-4.09,.95-1.87,.65-3.73,1.65-5.25,2.91-1.4,1.16-.57,3.1-.59,4.69-.08,5.65-.03,11.3-.03,16.95Z"/>
    <path class="cls-1" d="M430.83,559.75c0,3.08-.08,5.41,.01,7.73,.34,8.32-6.85,20.25-18.52,21.82-1.83,.25-3.66,.88-5.59,.89-5.31,.02-10.19-1.56-14.79-4.03-2.59-1.39-4.66-3.49-6.07-6.1-2.17-3.99-4.5-7.96-4.01-12.79-1.89-3.2-1.19-6.76-.87-10.04,.53-5.56,.94-11.26,3.87-16.3,3.56-6.11,8.79-9.82,15.86-10.59,1.91-.21,3.48-1.4,5.58-1.16,2.22,.26,4.17,1.65,6.57,1.15,2.3-.48,3.75,2.35,6.15,1.95,5.09,3.6,9.23,7.75,10.93,14.16,1.25,4.73,.53,9.39,.89,13.32Zm-13.99-2.54c0-2.05,.02-3.71,0-5.37-.04-2.39-1.38-5.47-3.07-7.17-1.42-1.43-1.44-1.39-5.8-2.81-2.93-.96-5.47,.17-7.77,1.63-3.84,2.43-4.93,6.63-5.22,10.68-.37,5.14-.51,10.35,.82,15.49,.98,3.78,4.64,8.15,8.14,8.49,3.2,.31,6.19-.29,8.95-2.39,3.73-2.83,3.38-7.25,4.94-10.91-2.11-2.46-.41-5.39-1-7.64Z"/>
    <path class="cls-1" d="M787.58,558.65c-.37-4.16,.48-8.96,1.92-13.78,1.74-5.79,8.37-12.33,14-13.75,2.55-.64,5.32-.48,7.69-1.84,4.45,.8,8.97,1.01,13.26,2.91,3.76,1.67,6.41,4.52,8.77,7.49,1.74,2.18,2.46,5.27,3.29,8.05,1.94,6.56,.74,13.33,1.04,20-1.5,2.62-.92,5.73-2.36,8.5-3.08,5.93-7.44,10.5-13.72,12.33-4.21,1.23-8.81,3.34-13.39,.63-3.39,.49-5.97-1.44-8.84-2.75-5.73-2.61-7.92-7.94-10.66-12.9,.69-2.97-1.47-5.58-1.05-8.56,.25-1.79,.05-3.65,.05-6.33Zm35.97,1.26c0-1.99-.1-3.99,.02-5.98,.19-3.13-1.02-5.89-2.43-8.46-1.28-2.34-4.34-2.4-6.34-3.72-2.36-1.56-3.6,.58-5.4,.63-2.79,.07-4.86,1.6-6.06,4.47-.99,2.37-1.87,4.63-1.81,7.23,.08,3.49,.17,6.98-.03,10.46-.13,2.31,.41,4.45,1.08,6.56,2.47,7.78,13.11,9.31,17.69,3.9,1.98-2.35,2.94-5.14,3.23-8.11,.23-2.3,.05-4.64,.05-6.97Z"/>
    <path class="cls-1" d="M244.97,438.63c0,2-.08,4,.01,5.99,.43,8.64-3.88,14.93-10.05,20.29-.99,.86-9.04,3.45-10.54,3.47-1.66,.02-3.33-.04-4.99,.01-7.78,.22-14.08-3-18.69-8.96-2.73-3.53-4.45-7.9-4.65-12.49-.24-5.31-.32-10.66,.02-15.96,.35-5.54,2.07-10.94,6-14.89,3.5-3.52,7.62-6.77,13.17-6.6,1.51,.05,2.46-1.16,4.08-1.13,4.19,.08,8.21,1.15,12.1,2.27,3.47,.99,6.66,3.45,8.68,6.58,2.51,3.91,4.94,7.99,4.87,12.94-.04,2.83,0,5.65,0,8.48Zm-12.99,.8c0-1.69,0-3.02,0-4.35,0-3.85-1.25-7.35-3-10.71-.68-1.31-1.62-2.36-3.03-2.92-2.07-.82-5.5-1.5-7.54-.93-1.89,.52-4.38,1.17-5.24,2.58-1.23,2.03-3.41,3.76-3.24,6.62,.09,1.56,.59,3.25-.48,4.76-1.27,1.77,.97,3.05,.65,4.89-.44,2.58-.46,5.35-.03,7.94,.59,3.58,1.99,6.78,5.75,8.54,1.84,.86,3.53,.46,5.27,.49,5.45,.11,8.64-2.95,10-8.2,.79-3.06,.82-6.03,.89-8.71Z"/>
    <path class="cls-1" d="M417.84,429.09c0-3.33,.26-6.68-.08-9.97-.29-2.85,.96-5.35,1.23-8.07,.24-2.51,1.65-4.9,2.76-7.3,2.95-6.41,8.14-9.97,14.43-12.22,5.08-1.82,10.96-2.84,15.11-1.89,2.9,.66,5.72,.9,8.61,.82,1.67-.05,2.82,1.36,4.54,1.27,.55-.03,1.5,1.04,1.42,2.31-.15,2.32-.02,4.66-.05,6.98-.02,1.53-.93,2.32-2.41,2.44-.83,.07-1.76,.25-2.48-.03-5.27-2.05-10.73-.63-16.09-.87-2.31-.1-4.44,.99-6.38,2.67-4.1,3.56-5.53,8.07-5.59,13.19-.08,7.65-.06,15.31,0,22.96,.03,4.27,2.13,7.73,4.53,11.11,2.1,2.96,5.55,2.85,8.44,3.76,2.27,.72,5.22,.83,7.39,0,3.92-1.51,7.78-.41,11.63-.84,.98-.11,.97,.63,.97,1.31,0,2.66-.07,5.33,.03,7.98,.05,1.26-.38,1.61-1.59,1.82-1.12,.2-6.28,1.85-7.21,1.85-5.16,0-10.41,.59-15.46-.14-6.67-.97-13.13-2.9-16.98-9.48-1.65-2.81-4.01-5.11-4.83-8.51-.82-3.37-1.95-6.65-1.92-10.17,.03-3.66,0-7.32,0-10.98Z"/>
    <path class="cls-1" d="M460.81,564.63c0,6.98,.02,13.96,0,20.94-.01,3.19-.43,3.56-3.74,3.61-2.33,.03-4.66,.04-6.99,0-2.51-.05-3.18-.7-3.25-3.1-.05-1.83,0-3.66,0-5.48,0-12.3,0-24.6,0-36.9,0-1.74-1.19-3.18-2.93-3.41-.98-.13-2.03-.19-2.98,.01-1.58,.33-2.56-1.04-4.08-1.15-1.96-.14-.56-2.12-1.02-3.17-.25-.56-.83-1.02-.95-1.59-.4-1.97,1.29-4.07,3.21-4.11,2.8-.06,5.61-.11,8.41-.17,.78-2.75,0-5.58,.36-8.33,.42-3.3,1.22-6.52,3.87-8.86,2.42-2.14,5.07-3.88,8.48-3.56,1.42,.13,2.4-.71,3.59-.99,2.92-.67,5.57,1.51,8.56,1.07,.35-.05,1.41,.84,1.45,1.79,.04,1,.06,2,0,2.99-.1,1.62,.73,3.82-.4,4.71-1.04,.82-3.14,.31-4.78,.37-.66,.02-1.33-.04-2,.01-3.47,.27-4.78,1.66-4.8,5.13,0,1.81-.64,4.19,.26,5.31,1.19,1.48,3.72,.52,5.65,.5,6.36-.07,6.2-.04,6.08,6.32-.01,.66,.04,1.33,0,1.99-.12,1.78-.91,2.65-2.65,2.69-2.66,.07-5.32,.06-7.98,0-1.1-.02-1.38,.42-1.37,1.45,.03,7.31,.02,14.63,.02,21.94Z"/>
    <path class="cls-1" d="M770.59,443.3c0,7.15-.16,14.31,.1,21.45,.08,2.16-1.38,2.48-2.43,3.43-.2,.18-.78,.29-.88,.17-1.45-1.7-3.23,1.28-4.54-.29-.83-.99-1.8-.61-2.73-.67-2.46-.17-2.49-.15-2.49-2.79-.01-13.14,0-26.28,0-39.41,0-1.16-.02-2.33,0-3.49,.03-1.19-1.07-2.23-1.62-2.12-2.25,.45-3.96-1.2-6.1-1.18-2.92,.02-4.24-1.62-4.28-4.6,0-.67-.09-1.35,.02-1.99,.24-1.39,.92-2.35,2.53-2.33,2.33,.03,4.66,.04,6.99,0,1.52-.03,2.38-.92,2.43-2.41,.07-1.99,.21-4.01-.03-5.98-.29-2.37,.8-4.35,1.47-6.41,.69-2.13,2.22-3.63,4.44-4.6,5.63-2.44,11.07-3.65,17.5-1.57,.44,.14,1.06,.03,1.36,.3,2.54,2.29,1.06,5.3,1.12,7.95,.04,1.7-1.93,1.82-3.5,1.76-1.99-.08-4,.06-5.99-.05-1.25-.07-2.33,1.08-2.26,1.51,.45,2.85-1.43,5.3-1.15,8.09,.1,1.02,.33,1.45,1.41,1.43,2.99-.05,5.99,.04,8.99-.05,1.32-.04,1.87,.42,1.62,1.68-.2,1,.83,1.33,1.01,2.09,.52,2.18-1.12,3.91-1.37,5.96-.03,.22-2.11,.25-3.23,.28-2.65,.06-5.3,.06-7.96,.09-.98,2.73-.32,5.54-.39,8.31-.12,5.15-.04,10.31-.04,15.47Z"/>
    <path class="cls-1" d="M755.6,560.42c0-5.65,.03-11.3-.01-16.96-.02-2.47-.71-3.25-3.15-3.15-2.3,.09-4.43-.39-6.58-1.03-1.34-.4-2.36-1.01-2.25-2.63,.01-.17,0-.33,0-.5,.07-4.52-1.13-6.21,5.49-5.92,2.1,.09,4.27,.5,6.35-.29,.05-1.97,.11-3.95,.16-5.92,.01-.5,0-1,0-1.5,.03-1.39,1.33-3.33,2.63-3.14,3.34,.47,6.3-1.38,9.59-1.15,1.65,.11,1.97,.71,1.78,2.08-.02,.16-.01,.33,0,.5,.2,3.11-.41,6.24,.35,9.33,2.97,.05,5.95,.15,8.92,.12,1.2-.01,1.29,.67,1.89,1.49,1.51,2.06,.94,4.17,.63,6.12-.41,2.57-1.95,3.3-4.9,3.43-2.27,.1-4.59-.48-6.81,.4-.03,2.15-.07,4.3-.07,6.45,0,8.48,0,16.96,0,25.44,0,1-.12,2.01,.03,2.99,.21,1.38,1.81,2.61,3.2,2.64,.67,.01,1.33-.01,2,0,2.14,.05,4.28,.1,6.42,.16,.72,2.42,.16,4.9,.35,7.34,.11,1.41-.86,2.48-1.88,2.4-3.14-.27-5.91,1.39-9.08,1.23-2.61-.13-5.08-.87-7.51-1.39-2.23-.47-4.43-2.32-5.56-4.89-1.09-2.48-2.02-4.9-1.98-7.67,.09-5.32,.03-10.64,.03-15.96Z"/>
    <path class="cls-1" d="M516.77,560.9c0-5.65,.01-11.29,0-16.94,0-2.53-.92-3.49-3.65-3.68-1.9-.14-3.71-.16-5.61-.9-2.57-1.01-2.69-.67-2.72-3.12-.08-5.57-.57-6.18,5.87-6.01,1.95,.05,4.61,.9,5.68-.39,1-1.19,.41-3.75,.43-5.71,.05-4.13,.64-4.9,5-4.78,2.17,.06,3.89-1.43,6.08-1.12,2.1,.3,2.86,.82,2.91,2.98,.06,2.49,.1,4.99-.02,7.47-.06,1.41,.54,1.64,1.74,1.6,1.83-.07,3.66-.04,5.48-.01,3.45,.05,3.76,.39,3.8,4.05,.01,1,0,1.99,0,2.99-.02,2.75-1.02,3.79-3.92,3.92-1.82,.08-3.66,.1-5.48-.01-1.39-.09-1.62,.51-1.61,1.72,.04,10.96,0,21.92,.03,32.88,0,2.77,.63,3.31,3.48,3.37,.66,.01,1.33-.04,1.99,.01,1.78,.15,4.2-.83,5.17,.46,.89,1.18,.3,3.48,.34,5.28,.02,1,0,1.99,0,2.99,0,.71-.12,1.39-1.04,1.23-2.8-.49-5.29,1.03-8.06,1.14-3.16,.13-5.99-1.1-9.05-1.32-1.87-.13-3.95-1.59-4.9-3.98-1-2.5-2-4.9-1.96-7.67,.09-5.48,.03-10.96,.03-16.44Z"/>
    <path class="cls-1" d="M135.05,439.28c0-5.99-.05-11.98,.04-17.96,.02-1.55-.48-2.13-1.95-1.87-2.8,.51-5.26-1.43-8.08-1.06-1.03,.14-1.63-.89-1.98-1.83-.11-.29-.04-.66-.01-.99,.14-1.96-.84-4.46,.43-5.71,.95-.94,3.43-.28,5.23-.42,2.1-.17,4.86,.96,6.11-.61,.98-1.22,.22-3.83,.23-5.82,0-.83-.05-1.67,.01-2.49,.08-1.11,.94-1.99,1.81-1.98,3.57,.02,6.94-1.59,10.58-1.13,1.33,.17,1.64,.53,1.61,1.76-.07,2.99,0,5.99-.04,8.98-.02,1.13,.49,1.39,1.5,1.33,1.16-.07,2.33-.08,3.49,0,1.95,.13,4.6-.93,5.66,.47,.97,1.28,.31,3.8,.36,5.77,.02,.66-.04,1.33,.01,1.99,.09,1.16-.11,1.98-1.56,1.74-.32-.05-.67-.03-1,0-2.77,.24-5.59-.52-8.33,.38-.04,2.65-.1,5.29-.11,7.94-.01,9.31,.01,18.63-.03,27.94,0,1.25,.28,1.78,1.64,1.7,1.99-.11,4,.05,5.99-.06,1.21-.06,2.09,.54,3.12,.93,.96,.36,1.33,.58,1.29,1.58-.07,1.66,0,3.33-.02,4.99-.01,1.82-.79,3.21-2.4,3.35-2.8,.25-5.64,.29-8.44,.11-2.54-.16-5.01,.18-7.68-.66-2.28-.72-4-1.85-4.97-3.49-1.13-1.92-2.59-3.86-2.53-6.43,.13-6.15,.04-12.31,.04-18.46Z"/>
    <path class="cls-1" d="M600.71,437.23c0-6.43-.03-11.25,.02-16.08,.01-1.19-.19-1.79-1.6-1.75-2.39,.08-4.56-1.36-7.09-1.04-1.33,.17-2.36-.85-2.33-2.46,.02-1.5,.09-3-.02-4.49-.11-1.44,.24-2.08,1.86-1.99,2.49,.14,4.99,.09,7.49,.02,1.75-.05,2.59-.91,2.65-2.69,.07-1.99,.06-3.99,0-5.99-.04-1.21,1-2.22,1.59-2.19,3.45,.21,6.62-1.67,10.09-1.15,1.07,.16,1.37,.48,1.34,1.5-.06,2.49-.03,4.99-.02,7.49q.01,3.01,3.24,3.04c2,.01,4-.05,5.99,.02,1.81,.06,2.66,.88,2.74,2.61,.07,1.66,.11,3.33-.01,4.99-.11,1.42-.87,2.39-2.47,2.38-.67,0-1.33-.04-2,0-2.45,.16-4.93-.39-7.35,.35-.05,2.31-.14,4.62-.14,6.93-.02,8.48-.03,16.97,.02,25.45,0,1.08-.26,2.15,.46,3.31,1.07,1.73,.87,1.87,2.67,1.9,1.83,.02,3.67-.11,5.49,.03,2.29,.18,3.32,1.36,3.34,3.5,.01,1.33,.01,2.66,0,3.99-.02,1.67-.94,3.23-2.44,3.34-2.64,.21-5.32,.25-7.96,.07-2.37-.17-4.66,.34-7.15-.81-4.4-2.03-7.11-4.59-7.43-8.84-.57-7.67-1.61-15.32-1.01-21.44Z"/>
    <path class="cls-1" d="M697.64,560.58c0-2.67-.15-4.52,.03-6.32,.56-5.62,1.39-11.06,4.88-15.93,3.16-4.41,7.46-6.83,12.36-7.87,2.89-.61,5.88-1.9,9.02-1.18,3.14,.72,6.3,1.05,9.56,1.09,2.82,.03,4.07,1.82,4.12,4.73,0,.17,.03,.34,0,.5-.37,2.02,1.13,4.58-.97,6.02-2.27,1.55-5.15,.91-7.62,.44-4.87-.93-5.97-.77-10.23,.1-3.65,.74-5.27,3.32-5.98,6.08-.69,2.7-1.6,5.51-1.24,8.52,.33,2.78,.14,5.64,.05,8.46-.08,2.43,.78,4.68,1.5,6.87,1.25,3.83,4.47,5.9,8.28,6,3.66,.1,7.48,1.06,11.08-.82,.78-.41,1.97-.12,2.96-.04,1.3,.1,2.1,.87,2.17,2.17,.08,1.66,.04,3.32,.02,4.98-.04,2.91-1.3,4.74-4.12,4.73-3.91-.01-7.59,1.47-11.56,1.18-4.62-.34-8.98-1.32-13.08-3.39-4.64-2.34-7.4-6.39-9.16-11.05-1.94-5.16-2.4-10.6-2.05-15.25Z"/>
    <path class="cls-1" d="M315.92,296.63v34.43c0,1-.01,2,0,2.99,.02,1.6-.95,2.43-2.36,2.48-2.99,.12-5.99,.09-8.99,.02-1.74-.04-2.52-.92-2.64-2.7-.04-.66,0-1.33,0-2v-69.36c0-.67-.04-1.33,0-2,.12-1.9,1.79-3.73,3.64-3.79,2.66-.08,5.33-.11,7.99,.01,1.41,.07,2.37,.88,2.36,2.48-.02,2.99,0,5.99,0,8.98v28.44Z"/>
    <path class="cls-1" d="M373.87,428.16v-33.93c0-.83-.02-1.66,0-2.49,.09-2.5,.71-3.18,3.12-3.23,2.5-.05,4.99-.02,7.49,0,1.68,.01,3.13,1.27,3.35,3,.11,.82,.02,1.66,.02,2.49,0,22.95,0,45.9,0,68.86,0,1.6,.36,3.27-1.35,4.46-.82,.57-1.43,1.17-2.57,1.11-2.32-.12-4.66,0-6.99-.05-2.38-.05-3.05-.74-3.06-3.28-.04-6.99-.01-13.97-.01-20.96v-15.97Z"/>
    <path class="cls-1" d="M576.73,172.36c0-12.46,.05-24.93-.06-37.39-.02-1.92,.58-2.22,2.25-2.12,2.49,.14,4.99,0,7.48,.05,2.74,.05,3.25,.63,3.31,3.54,.01,.66,0,1.33,0,1.99,0,23.43,0,46.86,0,70.29,0,3.01-.02,3.04-2.73,3.03-3.3-.01-6.61-.1-9.91-.15-.74-3.25-.29-6.55-.32-9.83-.07-9.8-.03-19.61-.03-29.41Z"/>
    <path class="cls-1" d="M872.52,172.32c0,12.29,0,24.58,0,36.87,0,2.53-.03,2.54-2.71,2.56-2.16,.02-4.32,.03-6.48,0-3.45-.05-3.78-.38-3.79-4.05-.02-6.48,0-12.96,0-19.43v-49.83c0-1.16-.04-2.33,.01-3.49,.05-1.12,.9-1.71,1.8-2.03,.59-.21,1.32-.05,1.98-.04,2.97,.06,5.93,.13,8.89,.2,.64,2.93,.26,5.9,.28,8.84,.06,10.13,.02,20.26,.02,30.4Z"/>
    <path class="cls-1" d="M872.52,296.35v34.88c0,1,.1,2.01-.02,2.99-.17,1.41-.89,2.37-2.49,2.36-2.66-.02-5.32,0-7.98,0-1.6,0-2.28-.96-2.48-2.37-.09-.65-.02-1.33-.02-1.99v-71.26c0-.66,.04-1.33,0-1.99-.09-1.17,.57-1.33,1.53-1.28,3.77,.21,7.57-.39,11.32,.36,.05,3.47,.13,6.94,.14,10.4,.02,9.3,0,18.6,0,27.9Z"/>
    <path class="cls-1" d="M848.54,559.51c0-7.97-.01-15.94,0-23.91,0-4.05,1.21-5.29,5.1-5.32,1.83-.02,3.66-.03,5.48,0,2.53,.05,2.57,.06,3.37,2.96,.21,.76,.18,.74,1.07,.6,1.91-.3,2.61-2.14,4.4-2.71,2.23-.7,4.37-.78,6.61-.89,1.08-.05,1.86-1.79,3.3-.21,1.21,1.32,1.86,2.55,1.66,4.34-.15,1.31,.01,2.66-.04,3.98-.08,2.08-.78,2.99-2.94,2.83-1.88-.14-3.32,1.39-5.07,1.04-1.9-.38-3.39,.77-5.05,1.15-3.48,.79-3.91,1.73-3.91,5.43,0,11.46,0,22.91,0,34.37,0,1,.03,1.99,0,2.99-.08,2.15-.78,2.95-2.83,3.01-2.32,.07-4.65,.06-6.98,0-2.47-.06-4.15-1.74-4.16-4.25-.04-8.47-.01-16.94-.01-25.41Z"/>
    <path class="cls-1" d="M848.54,438.94v-23.92c0-1-.12-2.01,.03-2.99,.2-1.32,1.87-2.56,3.27-2.57,2.66-.01,5.33,.09,7.98-.05,1.2-.06,2.16,.5,2.4,1.32,.62,2.11,1.15,1.79,2.9,.83,3.41-1.87,7.14-3.19,11.17-3.1,2.48,.06,3.16,.71,3.22,3.13,.05,1.99,.06,3.99,0,5.98-.07,2.09-.84,2.95-2.98,2.83-4.26-.23-8.05,.83-11.79,2.91-1.79,.99-2.23,1.94-2.22,3.71,.04,12.13,.04,24.25-.01,36.38,0,1.27,.56,3.58-.36,3.63-1.94,.11-3.62,2.58-5.76,.7-.96-.84-2.28-.5-3.31-.29-.79,.16-1.37,1.6-2.42,.49-.97-1.02-2.21-1.72-2.18-3.6,.14-8.47,.06-16.94,.06-25.42Z"/>
    <path class="cls-1" d="M695.65,437.93c0-8.64,0-17.28,0-25.92,0-2.52,.03-2.53,2.72-2.55,2.83-.02,5.66,.1,8.48-.04,1.68-.08,1.88,.65,1.82,2.04-.06,1.27,.93,1.24,1.65,.77,2.51-1.64,5.26-2.56,8.16-3.24,.73-.17,1.47-.48,2.26-.52,4.43-.21,4.86,.19,4.88,4.47,0,1.33,.02,2.66,0,3.99-.05,2.88-.59,3.61-3.33,3.48-3.94-.19-7.36,1.36-10.86,2.73-1.03,.4-2.02,.58-1.85,2.17,.21,1.97,.05,3.98,.05,5.98,0,11.13,0,22.26,0,33.39,0,1.87-1.06,3.56-2.67,3.64-3.15,.17-6.32,.14-9.47,0-.91-.04-1.74-.87-1.83-1.97-.08-.99-.02-1.99-.02-2.99v-25.42Z"/>
    <path class="cls-1" d="M346.89,559.58c0-8.63-.02-17.26,.01-25.89,0-2.79,.62-3.37,3.43-3.41,2.49-.04,5,.16,7.47-.06,1.97-.18,2.31,.62,2.1,2.26-.08,.62-.23,1.43,.49,1.75,.65,.29,1.22-.11,1.7-.65,1.88-2.12,4.68-2.33,7.11-3.26,1.28-.49,2.76,.29,4.17-.86,.98-.8,3.46,1.19,3.49,2.56,.03,1.83,.03,3.65,0,5.48-.02,1.14,.28,2.53-.25,3.36-.63,.97-2.15,.17-3.24,.42-2.72,.62-5.46,1.22-8.14,2-4.01,1.17-4.34,1.66-4.34,5.57,0,11.62-.07,23.24,.03,34.86,.05,5.2-.09,5.7-5.39,5.49-1.82-.07-3.66,.03-5.48-.02-2.43-.07-3.12-.73-3.13-3.2-.04-8.8-.01-17.59-.01-26.39Z"/>
    <path class="cls-1" d="M495.79,559.73c0,8.65,.02,17.31,0,25.96,0,2.86-.59,3.44-3.36,3.49-2.5,.04-5,.05-7.49,0-2.41-.05-3.03-.73-3.12-3.23-.03-.83,0-1.66,0-2.5v-47.42c0-1-.05-2,0-2.99,.1-1.81,.88-2.69,2.61-2.73,2.83-.07,5.66-.07,8.49,0,2.1,.05,2.85,.82,2.86,2.98,.04,6.66,.01,13.31,.01,19.97v6.49Z"/>
    <path class="cls-1" d="M184.01,438.92c0,8.32,.02,16.64,0,24.96,0,2.85-.59,3.44-3.36,3.49-2.5,.04-5,.05-7.49,0-2.41-.05-3.03-.73-3.12-3.24-.03-1,0-2,0-2.99v-45.92c0-1-.05-2,0-2.99,.1-1.81,.89-2.69,2.61-2.73,2.83-.07,5.66-.07,8.49,0,2.09,.05,2.85,.83,2.86,2.98,.04,6.66,.01,13.31,.01,19.97v6.49Z"/>
    <path class="cls-1" d="M229.93,552.24c10.64,0,21.27,.06,31.91-.05,1.86-.02,2.28,.49,2.15,2.22-.16,2.15,.06,4.32-.07,6.47-.09,1.4-.89,2.38-2.49,2.34-.83-.02-1.66,0-2.49,0h-57.83c-.83,0-1.66-.04-2.49,0-1.62,.09-2.5-.9-2.56-2.26-.12-2.79,.06-5.6,.12-8.4,2.42-.69,4.9-.29,7.34-.31,8.81-.06,17.62-.02,26.42-.02Z"/>
    <path class="cls-1" d="M481.8,515.92c-.1-6.97-.46-6.65,6.75-6.63,7.92,.02,7.29-.56,7.24,7.13,0,1.5,.09,3-.03,4.49-.12,1.42-.87,2.38-2.47,2.38-3,0-5.99,0-8.99,0-1.6,0-2.36-.96-2.47-2.38-.12-1.65-.03-3.33-.03-4.99Z"/>
    <path class="cls-1" d="M176.76,401.31h-6.4c-.68-2.25-.18-4.55-.33-6.83-.02-.33-.03-.67,0-.99,.15-1.61-.72-3.68,.46-4.7,.87-.75,2.83-.29,4.3-.28,2.97,.02,5.93,.1,8.9,.15,.72,3.08,.23,6.21,.31,9.32,.09,3.47,0,3.47-3.24,3.5-1.33,0-2.66,0-3.98,0,0-.06,0-.11,0-.17Z"/>
    <path class="cls-1" d="M382.74,142.87c1.17,0,2.33-.01,3.5,0,2.51,.03,3.39,.69,3.58,3.25,.19,2.48,.16,5,0,7.48-.09,1.38-.96,2.3-2.58,2.27-2.66-.06-5.33,0-7.99-.02-1.69-.01-3.23-1.27-3.34-2.99-.14-2.15-.13-4.33-.01-6.48,.13-2.38,1.42-3.47,3.85-3.5,1,0,2,0,3,0Z"/>
    <path class="cls-1" d="M505.78,268.68c0,1,0,2,0,2.99-.02,2.81-.97,4-3.87,3.93-2.53-.07-5.12,.78-7.67-.78-.96-.58-1.5-.76-1.47-1.91,.06-2.16,0-4.33,.03-6.49,.01-1.14-.32-2.87,.26-3.3,1.18-.86,2.85-1.17,4.36-1.4,1.47-.22,2.99-.12,4.49-.03,2.91,.16,3.85,1.16,3.87,3.98,0,1,0,2,0,2.99Z"/>
    <path class="cls-1" d="M213.99,351.04c0,1.49,.04,2.99,0,4.48-.06,2.15-.78,2.94-2.82,3.01-1.99,.07-3.98,.06-5.97,0-2.47-.06-4.12-1.74-4.18-4.23-.05-1.82-.05-3.65,0-5.47,.06-2.52,1.69-4.18,4.15-4.26,1.16-.04,2.34,.12,3.48-.04,1.86-.26,3.36,.89,4.94,1.38,1.08,.34,.24,2.69,.41,4.13,.04,.33,0,.66,0,.99Z"/>
    <path class="cls-1" d="M40.11,144.53c0,1.38,.06,2.54-.01,3.69-.12,1.82-1.89,3.55-3.76,3.62-1.82,.07-3.64,.07-5.45,0-1.86-.07-3.65-1.82-3.74-3.64-.08-1.48-.08-2.98,0-4.46,.08-1.55-.6-3.35,1.11-4.49,2.07-1.38,4.29-1.92,6.72-1.02,.14,.05,.22,.25,.36,.34,1.33,.89,3.37-.54,4.39,1.39,.81,1.55,.17,3.2,.41,4.57Z"/>
    <path class="cls-1" d="M635.47,155.73c-1.8,0-4.18,.71-5.25-.17-1.43-1.18-.37-3.68-.5-5.61-.1-1.48-.08-2.97,0-4.45,.08-1.71,.93-2.56,2.7-2.6,2.64-.07,5.29-.1,7.92,.02,1.4,.06,2.36,.87,2.36,2.45,0,2.64,.05,5.28-.02,7.92-.05,1.69-.94,2.48-2.74,2.56-1.48,.06-2.97,.01-4.46,.01,0-.04,0-.08,0-.12Z"/>
    <path class="cls-1" d="M173.02,149.73c.15,6.25,.22,6.16-6.25,6.15-7.2-.02-6.84,.33-6.75-6.64,.02-1.33-.09-2.67,.03-3.99,.13-1.42,.87-2.38,2.47-2.38,2.66,0,5.33,0,7.99,0,1.6,0,2.36,.96,2.47,2.38,.12,1.49,.03,2.99,.03,4.49Z"/>
    <path class="cls-1" d="M804.57,268.72c0,1,0,2,0,2.99-.02,2.76-1.01,3.79-3.91,3.94-1.49,.08-3,.09-4.49,0-2.4-.16-3.56-1.43-3.58-3.77-.02-2.16-.02-4.33,0-6.49,.01-2.11,1.11-3.51,3.16-3.67,1.99-.16,4.01-.19,5.99,.01,1.97,.2,2.81,1.43,2.84,3.49,.01,1.16,0,2.33,0,3.49Z"/>
    <path class="cls-1" d="M208.75,142.79c1.64,.08,3.28,.17,4.92,.25,.44,1.98,.86,3.97,1.33,5.94,.52,2.18-1.59,3.88-1.04,6.09,.11,.45-.33,.8-.97,.8-2.83-.04-5.66-.02-8.49-.01-1.6,0-2.41-.96-2.47-2.38-.11-2.66-.09-5.32-.01-7.98,.05-1.73,.92-2.52,2.73-2.61,1.33-.06,2.66-.01,4-.01,0-.03,0-.05,0-.08Z"/>
    <path class="cls-1" d="M773.59,268.68c0-.99,0-1.99,0-2.98,.02-2.83,.93-3.82,3.83-4,1.32-.08,2.68-.18,3.97,.03,1.35,.22,2.92,.5,3.86,1.34,.6,.54,.29,2.15,.31,3.28,.04,1.66,.15,3.33-.04,4.97-.13,1.12,.88,2.57-.87,3.37-1.6,.74-3.23,1.77-4.89,.58-1.05-.75-1.5-.41-2.48,.07-1.49,.72-3.67-1.03-3.69-2.67-.02-1.33,0-2.65,0-3.98Z"/>
    <path class="cls-1" d="M195,150.71c-.21,1.42,.82,3.83-.46,4.79-1.17,.88-3.45,.31-5.24,.34-1.32,.03-2.65,.11-3.96-.02-1.39-.15-2.35-.89-2.34-2.48,.02-2.64,.03-5.28,0-7.92-.02-1.6,.93-2.43,2.29-2.51,2.47-.16,4.96-.15,7.42,0,1.36,.08,2.33,.91,2.3,2.51-.04,1.65,0,3.3,0,5.29Z"/>
    <path class="cls-1" d="M85.15,228.04c-.08,1.79,.48,4.07-.42,5.23-.97,1.26-3.37,.4-5.14,.44-6.5,.14-6.56,.59-6.54-6.23,.02-7.2-.27-6.71,6.55-6.77,5.16-.05,5.71,.1,5.47,5.35-.03,.66,0,1.32,0,1.98,.02,0,.05,0,.07,0Z"/>
    <path class="cls-1" d="M54.1,227.74c0-1.32-.03-2.64,0-3.96,.07-2.14,.79-2.95,2.78-3.02,2.14-.07,4.29-.07,6.44,0,1.81,.06,2.7,.87,2.75,2.55,.07,2.64,0,5.28,.02,7.92,0,1.59-.96,2.31-2.35,2.47-1.14,.13-2.31,.05-3.46,.02-1.96-.04-3.91-.11-5.87-.19-.11,0-.3-.23-.31-.35-.02-1.81-.01-3.63-.01-5.44Z"/>
    <path class="cls-1" d="M20.13,144.98c0,.88,.06,1.38-.01,1.86-.19,1.27,.66,3.33-.36,3.65-1.44,.45-2.78,1.43-4.41,1.37-1.48-.06-2.99,.13-4.45-.05-1.67-.21-2.75-1.73-2.76-3.53-.01-2.31,0-4.62,0-6.93,0-1.59,.96-2.29,2.36-2.46,.98-.12,1.98-.04,2.97-.02,2.12,.05,4.84-.66,6.2,.39,1.48,1.15,.2,4,.47,5.71Z"/>
    <path class="cls-1" d="M410.85,350.7c.21-1.43-.79-3.71,.47-4.82,.94-.83,3.13-.31,4.76-.31,2.13,0,4.26,.08,6.39,.12,.75,2.23,.21,4.53,.36,6.79,.06,.82,.02,1.65,0,2.48-.03,2.47-.69,3.42-3.24,3.51-1.68,.06-3.58,.85-5.14-.73-.34-.34-1.25-.25-1.88-.17-1.76,.25-1.8-.78-1.74-2.07,.07-1.48,.02-2.97,.02-4.8Z"/>
    <path class="cls-1" d="M397.14,345.71c7.16-.26,6.8-.51,6.71,6.5,0,.5,0,1,0,1.5-.05,2.79-.6,3.79-3.24,4.52-2.18,.6-4.46,.64-6.69-.11-1.52-.51-2.38-1.27-2.09-3.07,.2-1.3-.03-2.66,.06-3.99,.12-1.78-.81-4.09,.47-5.19,.95-.81,3.15-.16,4.79-.16Z"/>
    <path class="cls-1" d="M40.36,352.55c.5,0,1,0,1.5,0,4.05,.04,4.21,.19,4.24,4.12,.02,1.83,.1,3.67-.03,5.49-.1,1.42-.87,2.38-2.47,2.38-2.33,0-4.66,0-6.99,0-1.6,0-2.39-.96-2.47-2.38-.12-2.32-.09-4.66-.01-6.98,.05-1.73,.93-2.52,2.73-2.61,1.16-.06,2.33-.01,3.5-.01Z"/>
    <path class="cls-1" d="M20.79,364.53c-5.61,.21-5.72-.06-5.7-5.7,.02-6.49-.11-6.3,6.12-6.32,6.1-.02,5.95,.07,5.95,5.99,0,6.2,.17,6.18-6.36,6.03Z"/>
    <path class="cls-1" d="M302.93,234.49c0-.67-.03-1.01,0-1.34,.14-1.44-.59-3.87,.45-4.12,1.8-.43,3.45-1.48,5.5-1.4,1.69,.06,2.79,1.74,4.59,1.21,.31-.09,1.34,.88,1.32,1.33-.12,2.57,.9,5.22-.51,7.7-.5,.87-.45,2.22-2.15,1.89-1.12-.22-2.32-.02-3.49-.05-1.8-.05-4.12,.53-5.27-.38-1.24-.98-.25-3.41-.43-4.85Z"/>
    <path class="cls-1" d="M289.69,228.67c1.63,.07,3.8-.47,4.76,.37,1.27,1.11,.43,3.39,.45,5.15,.02,1.77,.83,4.18-.4,5.15-1.14,.9-3.44,.32-5.23,.38-.66,.02-1.33,.07-1.98-.01-1.1-.15-3.18,.43-3.11-.41,.16-1.97-2.48-3.43-.87-5.35,.62-.74,.59-1.43,.64-2.23,.21-2.95,.22-2.95,3.26-2.97,.83,0,1.65,0,2.48,0,0-.02,0-.04,0-.06Z"/>
  </g>
</svg>