<svg width="141" height="32" viewBox="0 0 141 32" fill="none" xmlns="http://www.w3.org/2000/svg">
<g clip-path="url(#clip0_211_3087)">
<path d="M106.81 19.0059C104.122 19.001 101.435 18.9977 98.7473 18.9862C98.5188 18.9854 98.4304 19.0969 98.3845 19.2871C98.2593 19.8159 97.9711 20.2512 97.6624 20.6923C97.032 21.5941 96.1084 21.8253 95.1079 21.9245C94.913 21.9442 94.8304 21.8548 94.8492 21.6613C94.8549 21.6072 94.8516 21.5523 94.8508 21.4974C94.8476 21.1834 94.7567 20.8349 94.8639 20.5644C94.9876 20.252 95.4117 20.3734 95.6933 20.2652C96.752 19.8577 96.9894 18.9542 97.0811 17.9811C97.1777 16.9464 97.1482 15.9061 97.0991 14.869C97.086 14.5878 97.1581 14.4705 97.4553 14.4951C97.7402 14.5189 98.0292 14.514 98.3141 14.4951C98.5663 14.4779 98.6408 14.5722 98.64 14.8206C98.6384 15.5716 98.6752 16.3234 98.6662 17.0743C98.6621 17.4006 98.7391 17.5449 99.096 17.5203C99.5308 17.49 99.9696 17.4998 100.405 17.5179C100.675 17.5285 100.755 17.4351 100.749 17.1653C100.729 16.1823 100.747 15.1977 100.718 14.2147C100.709 13.9106 100.801 13.8335 101.081 13.8548C101.366 13.8761 101.655 13.8753 101.94 13.8556C102.192 13.8384 102.266 13.927 102.264 14.1787C102.253 15.1346 102.281 16.0913 102.258 17.0473C102.249 17.4219 102.355 17.5835 102.737 17.517C102.816 17.5031 102.902 17.5048 102.982 17.517C103.305 17.5638 103.403 17.4301 103.395 17.1071C103.372 16.1512 103.397 15.1944 103.369 14.2385C103.36 13.918 103.458 13.8335 103.758 13.8614C104.028 13.8868 104.304 13.8802 104.576 13.8597C104.832 13.8401 104.9 13.9352 104.896 14.1852C104.881 15.1551 104.897 16.125 104.882 17.0948C104.877 17.3949 104.931 17.5392 105.282 17.5212C106.133 17.4785 106.011 17.6335 106.018 16.7759C106.023 15.9561 106.033 15.1354 105.999 14.3172C105.983 13.9532 106.079 13.8122 106.445 13.8671C106.563 13.8843 106.687 13.8515 106.809 13.8425V19.0075L106.81 19.0059Z" fill="#276FE5"/>
<path d="M0.372803 15.7265C0.546378 15.4715 0.62989 15.1722 0.791184 14.9041C1.32337 14.0171 2.14703 13.7285 3.10006 13.6744C3.53482 13.6498 3.97203 13.6654 4.40842 13.6703C5.0364 13.6777 5.46461 14.0261 5.48671 14.6582C5.52683 15.7765 5.52438 16.8964 5.49818 18.0154C5.48999 18.3811 5.28285 18.6976 4.88821 18.8017C3.93027 19.0542 2.95678 19.123 1.97018 19.0353C1.34057 18.9796 0.769896 18.8066 0.373621 18.2688V15.7273L0.372803 15.7265ZM3.95811 16.3118C3.95811 16.2298 3.95811 16.1487 3.95811 16.0667C3.95483 15.0657 3.95647 15.0853 2.93713 15.1886C2.30505 15.2526 2.06516 15.601 1.96118 15.9675C1.89977 16.1839 1.91123 16.4266 1.91697 16.657C1.94071 17.6178 1.70818 17.5506 2.79958 17.549C3.96057 17.5473 3.96057 17.5367 3.95893 16.393C3.95893 16.3659 3.95893 16.3389 3.95893 16.311L3.95811 16.3118Z" fill="#276FE5"/>
<path d="M29.4096 18.9993C25.9176 18.9993 22.4257 18.9952 18.9345 19.0067C18.6291 19.0075 18.5145 18.9345 18.5472 18.6222C18.5726 18.3787 18.5767 18.1278 18.5456 17.886C18.5014 17.5375 18.661 17.4801 18.9623 17.4859C19.8351 17.5039 20.7079 17.4892 21.5807 17.5023C21.8722 17.5064 21.9844 17.4547 21.9287 17.1112C21.7027 15.7191 21.218 15.2895 19.7213 15.2289C18.9673 15.1985 18.9632 15.1985 18.9705 14.4295C18.9779 13.6507 18.8084 13.6621 19.7533 13.731C20.6318 13.795 21.4743 13.9335 22.2251 14.4664C23.0643 15.0624 23.3148 15.9274 23.4458 16.8669C23.5359 17.5113 23.5326 17.5113 24.1622 17.508C25.5533 17.5023 26.9443 17.49 28.3354 17.499C28.6809 17.5015 28.7505 17.3818 28.6825 17.062C28.4697 16.061 27.7737 15.3994 26.7495 15.2903C26.3033 15.2428 25.8513 15.2248 25.4026 15.2321C25.1406 15.2362 25.0653 15.151 25.0882 14.9042C25.1136 14.6328 25.1234 14.3582 25.1218 14.086C25.1202 13.7999 25.207 13.6769 25.5287 13.7113C26.178 13.7802 26.8314 13.7958 27.4749 13.9352C28.861 14.2352 30.0015 15.2256 30.1841 16.7259C30.2021 16.8751 30.239 17.0235 30.2414 17.1727C30.2455 17.4129 30.3446 17.5097 30.5919 17.4998C31.0004 17.4842 31.4106 17.4859 31.8192 17.4998C32.0771 17.5088 32.1409 17.3998 32.1377 17.1588C32.1311 16.7095 32.1074 16.2569 32.195 15.8109C32.4373 14.5738 33.4387 13.713 34.6946 13.6843C35.2399 13.672 35.786 13.6892 36.3313 13.699C36.938 13.7097 37.2606 14.018 37.2721 14.6361C37.2876 15.4551 37.2909 16.275 37.2729 17.094C37.2663 17.408 37.3498 17.5383 37.6822 17.5162C38.0761 17.4908 38.474 17.4933 38.8678 17.517C39.1716 17.5359 39.2608 17.4391 39.2575 17.1284C39.2395 15.4076 39.2559 13.6867 39.2305 11.9659C39.2256 11.6084 39.3304 11.5142 39.6595 11.5552C40.0067 11.5986 40.457 11.4109 40.6813 11.6412C40.8868 11.8511 40.7395 12.2922 40.7403 12.6308C40.746 14.4607 40.7452 16.2914 40.7452 18.1213C40.7452 18.7476 40.5217 18.9821 39.883 18.9845C38.1236 18.9927 36.3641 18.9903 34.6046 18.9911C32.8721 18.9911 31.1404 18.9911 29.408 18.9911V18.9977L29.4096 18.9993ZM35.7467 16.3356C35.6804 16.0028 35.9334 15.5092 35.6337 15.2592C35.3513 15.0231 34.8739 15.1469 34.4867 15.2149C34.0364 15.2928 33.7138 15.6658 33.6876 16.1192C33.6671 16.4857 33.6794 16.8538 33.6655 17.2211C33.6573 17.4334 33.7465 17.5105 33.9537 17.508C34.4564 17.5023 34.9599 17.4998 35.4626 17.5179C35.7107 17.5269 35.7615 17.4178 35.75 17.2006C35.7361 16.9292 35.7467 16.6562 35.7467 16.3356Z" fill="#276FE5"/>
<path d="M89.6218 18.9968C88.3126 18.9968 87.0034 19.0001 85.6934 18.9952C85.0032 18.9927 84.7527 18.7574 84.7371 18.068C84.7191 17.2489 84.7174 16.4291 84.7338 15.6101C84.7404 15.278 84.6511 15.1649 84.2958 15.1805C82.8703 15.2436 82.6747 15.4305 82.6648 16.8554C82.6648 16.9235 82.6706 16.9932 82.6599 17.0604C82.6034 17.4113 82.7369 17.5351 83.1021 17.5433C84.0322 17.5638 84.0313 17.5818 84.0272 18.514C84.0272 18.5959 84.0191 18.6787 84.0272 18.7599C84.0567 19.0387 83.9675 19.1428 83.6621 19.11C83.1061 19.0493 82.5494 19.0042 82.0025 18.8829C81.3966 18.7484 81.1542 18.4459 81.1526 17.8154C81.1518 17.3244 81.1739 16.8325 81.1714 16.3414C81.1657 14.7394 82.2612 13.7523 83.7898 13.6859C84.2802 13.6646 84.7723 13.6671 85.2627 13.681C85.8473 13.6982 86.2461 14.1188 86.2526 14.7107C86.2608 15.5166 86.2698 16.3225 86.2583 17.1276C86.2542 17.4113 86.3451 17.5072 86.6325 17.5055C88.6507 17.4932 90.6698 17.4883 92.688 17.4982C93.0253 17.4998 93.0908 17.3809 93.0711 17.0661C93.0187 16.2192 93.0335 16.2176 92.1935 16.2127C91.2527 16.2077 90.3103 16.1733 89.3704 16.2086C88.3592 16.2463 87.9073 15.3559 88.3003 14.4443C88.6417 13.6523 89.2304 13.1014 89.9443 12.6398C90.949 11.9905 92.0543 11.7363 93.2243 11.6691C93.4044 11.6585 93.4797 11.7216 93.4617 11.8995C93.4601 11.9134 93.4617 11.9265 93.4617 11.9405C93.4511 12.3086 93.5534 12.7357 93.4011 13.03C93.2226 13.3744 92.7387 13.1793 92.3932 13.2375C91.5761 13.376 90.8401 13.6482 90.2882 14.2942C90.2088 14.3869 90.0393 14.482 90.1269 14.6336C90.1941 14.7492 90.3513 14.6951 90.4692 14.696C91.4099 14.7001 92.3515 14.6517 93.2906 14.741C94.079 14.8165 94.5113 15.2223 94.5637 16.0208C94.6096 16.7283 94.608 17.44 94.594 18.1499C94.5826 18.7181 94.2878 18.9911 93.7122 18.9944C92.3482 19.0026 90.9842 18.9968 89.6209 18.9968V18.9993L89.6218 18.9968Z" fill="#276FE5"/>
<path d="M59.1255 18.9887C57.8982 18.9887 56.6701 18.9928 55.4428 18.9871C54.8459 18.9838 54.5986 18.7436 54.588 18.1393C54.5733 17.2654 54.5667 16.3906 54.5847 15.5167C54.5921 15.1592 54.4652 15.1018 54.1492 15.1805C53.54 15.3322 53.5294 15.3306 53.5244 15.9692C53.5195 16.7202 53.5269 17.472 53.5064 18.223C53.4942 18.6747 53.2117 18.9821 52.7679 18.9862C51.7871 18.9944 50.8013 19.0707 49.8262 18.9198C48.901 18.7764 48.2959 18.2262 48.0413 17.3302C47.8047 16.4972 47.9168 15.6839 48.2689 14.8936C48.377 14.6501 48.4932 14.6362 48.702 14.7518C48.964 14.8977 49.2317 15.0354 49.5077 15.1527C49.7385 15.2511 49.7746 15.3855 49.669 15.5995C49.5347 15.8733 49.4978 16.1742 49.4692 16.4734C49.4143 17.0473 49.6722 17.4031 50.2478 17.4597C50.7481 17.5089 51.2557 17.4859 51.76 17.5031C51.9917 17.5105 52.022 17.3802 52.022 17.1908C52.0237 16.6448 52.022 16.0971 52.0515 15.5528C52.1047 14.5886 52.7851 13.8868 53.739 13.7417C54.2711 13.6606 54.8009 13.6876 55.3314 13.7065C55.8366 13.7245 56.1092 14.0606 56.1182 14.6632C56.1305 15.4691 56.1354 16.275 56.1125 17.0809C56.1027 17.4203 56.2059 17.5236 56.5481 17.5187C57.9531 17.4966 59.358 17.4925 60.763 17.504C61.1093 17.5072 61.1994 17.39 61.1118 17.0744C60.8056 15.97 60.3012 15.5224 59.2098 15.3093C58.7382 15.2174 58.2585 15.2133 57.7828 15.2256C57.4725 15.2338 57.4086 15.1109 57.4544 14.8378C57.497 14.5821 57.5216 14.323 57.5388 14.0647C57.5568 13.7868 57.6518 13.6491 57.9678 13.6983C58.5999 13.7958 59.2451 13.7696 59.8763 13.9147C61.5236 14.2927 62.5102 15.3888 62.6592 17.0719C62.683 17.3416 62.7288 17.522 63.0432 17.5105C63.207 17.5048 63.2504 17.6089 63.2348 17.7532C63.2332 17.7663 63.2348 17.7803 63.2348 17.7942C63.2725 18.6004 62.8855 19.0013 62.0738 18.9969C61.0913 18.9936 60.1097 18.9969 59.1272 18.9969V18.9912L59.1255 18.9887Z" fill="#276FE5"/>
<path d="M73.917 15.0731C73.917 16.0971 73.9194 17.1219 73.9162 18.1458C73.9145 18.6664 73.6042 18.9862 73.09 18.9903C72.2852 18.9968 71.4804 19.0067 70.6755 18.9854C70.3783 18.978 70.2375 19.0772 70.1475 19.3559C69.8838 20.1766 69.4777 20.9013 68.7351 21.4006C68.1792 21.7744 67.5602 21.8851 66.9126 21.9212C66.7316 21.931 66.6686 21.8564 66.6702 21.6851C66.6735 21.3301 66.6735 20.9751 66.6645 20.6201C66.6596 20.4373 66.7521 20.3906 66.9126 20.3791C67.986 20.302 68.5206 19.6691 68.7449 18.6591C69.0217 17.4121 68.8907 16.1561 68.8718 14.9042C68.8669 14.5648 68.9504 14.468 69.2665 14.4984C69.4687 14.518 69.675 14.4967 69.8797 14.4992C70.4848 14.5082 70.4283 14.3754 70.4422 15.0698C70.4561 15.7658 70.47 16.4627 70.4643 17.1596C70.4619 17.4178 70.529 17.5301 70.8082 17.5162C71.2167 17.4957 71.6278 17.4924 72.0355 17.5195C72.3507 17.5408 72.4228 17.4252 72.4203 17.1251C72.4056 15.4043 72.4203 13.6834 72.4039 11.9626C72.4015 11.6527 72.4563 11.51 72.7986 11.5502C73.0679 11.5822 73.3447 11.5748 73.6157 11.5527C73.8736 11.5322 73.9383 11.6273 73.935 11.8757C73.9227 12.9407 73.9301 14.0065 73.9301 15.0714C73.926 15.0714 73.9211 15.0714 73.917 15.0714V15.0731Z" fill="#276FE5"/>
<path d="M17.4123 16.229C17.3919 17.3465 17.4132 18.4696 17.0824 19.5559C16.5969 21.1497 15.6185 21.8843 13.9605 21.9212C13.7206 21.9261 13.5929 21.8654 13.6273 21.6039C13.6379 21.5227 13.6371 21.4407 13.6387 21.3587C13.6436 21.0726 13.5536 20.7365 13.6747 20.5151C13.8107 20.2667 14.2028 20.4135 14.464 20.3216C14.9602 20.1462 15.4048 19.9076 15.6094 19.3624C15.7102 19.0935 15.6553 19.0181 15.3802 19.0411C14.8226 19.0878 14.2708 19.1067 13.7222 18.9238C13.1696 18.7385 12.7553 18.4 12.5481 17.8695C12.0798 16.6684 12.2084 15.0681 13.3186 14.2032C13.7877 13.8375 14.3281 13.7342 14.8849 13.6932C15.3867 13.6564 15.8927 13.6686 16.3971 13.6834C17.0373 13.7023 17.3935 14.0786 17.4066 14.7156C17.4107 14.9066 17.4123 15.0976 17.4123 15.2886C17.4132 15.6026 17.4123 15.9167 17.4123 16.2298V16.229ZM15.9198 16.3102C15.9198 16.2421 15.9198 16.1741 15.9198 16.106C15.9173 15.0493 15.95 15.1296 14.875 15.1903C14.2045 15.228 13.836 15.6797 13.8147 16.361C13.8074 16.6086 13.8426 16.8504 13.9155 17.0866C14.0686 17.5834 14.5205 17.7933 15.2148 17.6924C15.7716 17.6113 15.9075 17.4489 15.9189 16.8423C15.9222 16.6652 15.9189 16.4881 15.9198 16.311V16.3102Z" fill="#276FE5"/>
<path d="M8.75456 19.0132C8.11347 19.0132 7.47239 19.0042 6.83131 19.0173C6.59387 19.0222 6.47843 18.9656 6.49644 18.7008C6.51527 18.4155 6.51527 18.1261 6.49153 17.8408C6.46942 17.5801 6.56849 17.5186 6.81494 17.5211C7.71474 17.5326 8.61619 17.5121 9.51599 17.5276C9.83449 17.5334 9.93847 17.4399 9.84759 17.1259C9.76489 16.839 9.77226 16.5307 9.63962 16.2536C9.41283 15.7797 9.05749 15.4813 8.53595 15.3698C8.07909 15.2723 7.62059 15.2214 7.15554 15.2337C6.94921 15.2386 6.85751 15.1665 6.86652 14.9492C6.87962 14.6221 6.86816 14.2934 6.87389 13.9662C6.87634 13.831 6.86816 13.6785 7.08185 13.6965C8.07008 13.7802 9.06077 13.7883 9.95812 14.3499C10.8022 14.8787 11.1363 15.6732 11.3328 16.5758C11.4441 17.0857 11.4515 17.6072 11.4622 18.1245C11.4744 18.7426 11.1846 19.0099 10.5574 19.0132C9.9573 19.0165 9.35716 19.0132 8.75701 19.0132H8.75456Z" fill="#276FE5"/>
<path d="M66.0093 15.2731C66.0093 16.4061 66.0028 17.5391 66.0142 18.6713C66.0167 18.9165 65.9561 19.028 65.6982 19.0001C65.55 18.9845 65.3985 19.0001 65.2487 19.0009C64.4308 19.0083 64.4471 19.0083 64.4529 18.168C64.4668 16.0938 64.4725 14.0196 64.4586 11.9462C64.4561 11.6363 64.5225 11.5289 64.8336 11.556C65.1177 11.5806 65.4067 11.5756 65.6916 11.556C65.9413 11.5379 66.0167 11.6166 66.0134 11.8741C65.9987 13.0071 66.0068 14.1401 66.0068 15.2723H66.0093V15.2731Z" fill="#276FE5"/>
<path d="M43.6732 15.3125C43.6732 16.4308 43.665 17.549 43.679 18.6673C43.6822 18.937 43.6028 19.0313 43.3343 19.0124C43.0362 18.9919 42.7341 18.9846 42.4361 19.0092C42.1626 19.0313 42.1307 18.9124 42.1315 18.6788C42.1397 16.4152 42.1405 14.1516 42.1299 11.8872C42.1291 11.6363 42.1938 11.5453 42.4467 11.5609C42.7317 11.579 43.0199 11.5814 43.304 11.5576C43.5873 11.5339 43.6781 11.624 43.6732 11.9167C43.6569 13.0481 43.6667 14.1803 43.6667 15.3125H43.6716H43.6732Z" fill="#276FE5"/>
<path d="M76.8499 15.319C76.8499 16.4242 76.8409 17.5301 76.8573 18.6353C76.8613 18.9222 76.7811 19.028 76.4937 18.9993C76.2776 18.978 76.0582 18.9993 75.8404 18.9976C75.2509 18.9927 75.2893 19.1231 75.2877 18.4688C75.2844 16.2987 75.2926 14.1286 75.2779 11.9593C75.2754 11.6388 75.3557 11.5174 75.6856 11.5519C75.9689 11.5814 76.2587 11.5773 76.5429 11.5535C76.8089 11.5314 76.8573 11.6396 76.8548 11.8806C76.8433 13.0267 76.8499 14.1737 76.8499 15.3198V15.319Z" fill="#276FE5"/>
<path d="M84.823 11.4002C85.3339 11.4084 85.6786 11.7527 85.6663 12.2414C85.6556 12.657 85.2872 13.0137 84.8721 13.0087C84.3948 13.003 84.0304 12.6447 84.0402 12.1922C84.0509 11.7019 84.3563 11.3928 84.823 11.4002Z" fill="#276FE5"/>
<path d="M82.9905 11.3822C83.4285 11.3732 83.7962 11.7577 83.7986 12.2282C83.8011 12.6398 83.4719 12.9964 83.074 13.0145C82.5836 13.0366 82.1873 12.6906 82.1701 12.2274C82.1546 11.7978 82.5484 11.3912 82.9905 11.3822Z" fill="#276FE5"/>
<path d="M2.06867 13.0121C1.71333 13.0055 1.3015 12.5833 1.30969 12.2332C1.32033 11.7429 1.71907 11.3724 2.22096 11.3863C2.61232 11.397 2.95128 11.7962 2.93982 12.2307C2.92754 12.694 2.56238 13.0211 2.06867 13.0121Z" fill="#276FE5"/>
<path d="M4.04324 13.0005C3.48486 13.0038 3.20157 12.7095 3.20812 12.1331C3.21221 11.7494 3.57574 11.401 3.98184 11.3904C4.44853 11.3789 4.79322 11.7257 4.79977 12.2127C4.8055 12.6472 4.46899 12.9972 4.04324 12.9997V13.0005Z" fill="#276FE5"/>
<path d="M50.1593 19.8463C50.6358 19.8602 50.9739 20.2177 50.9608 20.6923C50.9494 21.1195 50.6088 21.4556 50.2027 21.4392C49.6369 21.4171 49.325 21.0965 49.3545 20.5669C49.3757 20.1783 49.7606 19.834 50.1593 19.8463Z" fill="#276FE5"/>
<path d="M104.082 11.6552C103.592 11.629 103.262 11.2936 103.291 10.8509C103.321 10.4115 103.718 10.045 104.135 10.0745C104.568 10.1049 104.93 10.4984 104.912 10.9223C104.896 11.3264 104.498 11.6782 104.082 11.656V11.6552Z" fill="#276FE5"/>
<path d="M103.157 11.6265C103.521 11.6249 103.941 12.0487 103.946 12.4226C103.952 12.9407 103.605 13.2326 102.996 13.2194C102.694 13.2129 102.3 12.7325 102.304 12.375C102.308 12.0479 102.786 11.6281 103.157 11.6257V11.6265Z" fill="#276FE5"/>
<path d="M51.9654 19.8765C52.4616 19.8708 52.7973 20.1676 52.8046 20.6185C52.8112 21.0538 52.4468 21.4465 52.0325 21.4506C51.6199 21.4547 51.2162 21.0891 51.2048 20.7013C51.1909 20.2258 51.5077 19.8823 51.9654 19.8765Z" fill="#276FE5"/>
<path d="M105.082 13.203C104.573 13.2022 104.266 12.889 104.279 12.3815C104.289 12.0044 104.668 11.6396 105.059 11.6322C105.49 11.6232 105.888 12.0077 105.878 12.42C105.866 12.9111 105.569 13.203 105.082 13.2022V13.203Z" fill="#276FE5"/>
<path d="M59.6871 19.8953C60.1881 19.9158 60.4894 20.2454 60.4616 20.7422C60.4428 21.0775 59.9712 21.4686 59.5962 21.4612C59.2179 21.4538 58.8151 20.9865 58.8421 20.5856C58.8691 20.1675 59.2253 19.8773 59.6879 19.8953H59.6871Z" fill="#276FE5"/>
<path d="M125.131 29.7796C124.478 29.6076 123.824 29.4359 123.17 29.2635C121.628 28.8573 120.085 28.4557 118.545 28.0418C118.034 27.9047 117.522 27.7768 117.012 27.6371C116.432 27.4779 115.848 27.3328 115.268 27.1736C114.876 27.066 114.477 26.9821 114.084 26.8745C113.645 26.754 113.202 26.6472 112.762 26.529C112.156 26.3661 111.552 26.1969 110.941 26.0521C110.825 26.0243 110.787 25.9951 110.824 25.864C111.134 24.7494 111.436 23.6324 111.741 22.5164C112.083 21.2706 112.427 20.026 112.767 18.78C113.094 17.5846 113.416 16.3884 113.741 15.1927C114.058 14.0251 114.377 12.8578 114.696 11.6904C114.708 11.6464 114.709 11.596 114.765 11.5485C114.773 11.6904 114.783 11.8193 114.787 11.9484C114.832 13.2305 114.872 14.5126 114.921 15.7944C115.009 18.0629 115.102 20.3309 115.193 22.5994C115.201 22.8043 115.208 23.0093 115.214 23.2142C115.215 23.2806 115.236 23.3256 115.297 23.3651C116.333 24.032 117.367 24.703 118.402 25.3714C118.898 25.6914 119.396 26.0072 119.893 26.3258C120.393 26.6469 120.894 26.9667 121.392 27.2916C121.917 27.6339 122.435 27.9854 122.962 28.3243C123.164 28.4543 123.368 28.5831 123.567 28.7162C123.756 28.8433 123.949 28.969 124.139 29.0952C124.428 29.2867 124.714 29.4842 125.014 29.6594C125.062 29.6875 125.104 29.7255 125.148 29.759C125.143 29.7662 125.137 29.7731 125.131 29.7802L125.131 29.7796Z" fill="#276FE5"/>
<path d="M136.279 10.319C136.086 10.2609 135.922 10.1544 135.749 10.0691C133.822 9.11902 131.896 8.16724 129.97 7.21461C128.574 6.52361 127.179 5.83088 125.784 5.13673C125.704 5.09666 125.64 5.09294 125.559 5.13673C124.46 5.72841 123.347 6.29289 122.238 6.86539C121.168 7.41842 120.107 7.98977 119.039 8.54738C117.874 9.15595 116.706 9.75879 115.538 10.3611C115.444 10.4091 115.353 10.4767 115.236 10.4675C115.225 10.402 115.278 10.3808 115.309 10.3505C116.399 9.26987 117.488 8.18929 118.581 7.11185C119.619 6.08794 120.661 5.06775 121.701 4.04555C122.068 3.68545 122.431 3.32134 122.8 2.96439C123.096 2.67843 123.385 2.38417 123.68 2.09734C124.047 1.74125 124.41 1.38201 124.77 1.02019C125.095 0.69444 125.433 0.382143 125.756 0.0546747C125.839 -0.0286236 125.881 -0.00801374 125.948 0.0581097C126.332 0.442255 126.716 0.825828 127.103 1.20711C127.996 2.08675 128.89 2.96468 129.783 3.84403C130.255 4.30861 130.725 4.77577 131.196 5.24093C131.73 5.7682 132.266 6.29461 132.8 6.82102C133.119 7.13475 133.45 7.4376 133.754 7.76449C134.205 8.24768 134.692 8.69337 135.151 9.16854C135.493 9.52378 135.854 9.86126 136.205 10.2082C136.234 10.2365 136.273 10.2612 136.279 10.319H136.279Z" fill="#276FE5"/>
<path d="M126.69 29.7724C126.764 29.6737 126.846 29.6419 126.917 29.5955C127.754 29.0494 128.591 28.5006 129.431 27.9593C130.512 27.2635 131.579 26.5453 132.668 25.8626C133.156 25.5568 133.626 25.2214 134.118 24.9217C134.495 24.6918 134.864 24.4508 135.228 24.2029C135.637 23.9252 136.055 23.6619 136.472 23.3985C136.575 23.3338 136.618 23.256 136.62 23.1306C136.629 22.6013 136.645 22.0723 136.667 21.5433C136.74 19.7623 136.819 17.9818 136.889 16.2008C136.948 14.7046 136.996 13.2078 137.05 11.7116C137.052 11.6606 137.041 11.6059 137.087 11.543C137.154 11.782 137.218 12.0081 137.28 12.2348C137.756 13.9767 138.232 15.7185 138.708 17.4603C139.129 19.0003 139.562 20.5369 139.966 22.0815C140.158 22.8163 140.394 23.5388 140.57 24.2776C140.682 24.7468 140.829 25.2059 140.954 25.6711C140.979 25.7635 140.983 25.8574 140.998 25.9504C141.013 26.0357 140.936 26.0271 140.89 26.0395C140.524 26.1394 140.157 26.2367 139.791 26.3331C138.89 26.5699 137.99 26.8063 137.089 27.0422C135.941 27.3425 134.793 27.6416 133.645 27.9416C132.944 28.1248 132.242 28.3074 131.541 28.4935C130.15 28.8633 128.759 29.2363 127.367 29.6061C127.152 29.6634 126.934 29.7126 126.691 29.7718L126.69 29.7724Z" fill="#276FE5"/>
<path d="M130.869 20.2341C130.695 20.462 130.496 20.626 130.314 20.8057C128.754 22.3463 127.192 23.8838 125.632 25.4241C125.565 25.4905 125.526 25.5031 125.452 25.4298C124.992 24.9729 124.526 24.5221 124.065 24.0673C122.904 22.9228 121.743 21.7781 120.584 20.6317C120.402 20.4519 120.23 20.2627 120.043 20.0675C120.301 20.198 120.551 20.3211 120.798 20.4502C121.604 20.8713 122.408 21.2964 123.215 21.716C123.937 22.0919 124.662 22.4625 125.385 22.837C125.434 22.8621 125.473 22.8788 125.53 22.8501C126.424 22.4027 127.32 21.9576 128.215 21.5128C129.021 21.1129 129.827 20.7136 130.633 20.3154C130.699 20.2828 130.765 20.2435 130.869 20.2341H130.869Z" fill="#276FE5"/>
<path d="M125.147 10.9905C124.792 11.2083 124.436 11.4256 124.08 11.6446C123.58 11.9532 123.08 12.2632 122.581 12.5729C121.854 13.0232 121.128 13.4751 120.399 13.922C120.311 13.9758 120.273 14.0356 120.27 14.1378C120.237 15.1288 120.201 16.1195 120.164 17.1102C120.134 17.9008 120.101 18.6915 120.043 19.495C119.997 19.3624 119.94 19.2325 119.905 19.0968C119.65 18.115 119.343 17.1477 119.07 16.171C118.759 15.0613 118.44 13.954 118.119 12.8471C118.087 12.7346 118.129 12.7074 118.222 12.6845C118.957 12.5033 119.692 12.321 120.426 12.1361C121.926 11.7585 123.426 11.3789 124.926 11.0008C124.995 10.9834 125.066 10.9733 125.136 10.9596C125.14 10.9699 125.143 10.9802 125.147 10.9902L125.147 10.9905Z" fill="#276FE5"/>
<path d="M126.044 10.9539C126.313 11.0206 126.566 11.0819 126.819 11.1466C128.594 11.6023 130.37 12.0534 132.151 12.4842C132.423 12.55 132.692 12.6325 132.964 12.7009C133.051 12.7229 133.062 12.7584 133.038 12.8414C132.653 14.1779 132.269 15.515 131.886 16.8524C131.674 17.5943 131.466 18.3374 131.254 19.0794C131.213 19.2248 131.16 19.367 131.102 19.5442C131.055 19.1197 131.065 18.7304 131.048 18.3423C131.011 17.485 130.99 16.6271 130.953 15.7698C130.929 15.2081 130.894 14.6471 130.888 14.0849C130.888 14.0245 130.863 13.9904 130.814 13.9595C130.222 13.5877 129.617 13.237 129.033 12.8535C128.78 12.6874 128.511 12.546 128.254 12.3863C127.544 11.9458 126.836 11.5015 126.127 11.0584C126.095 11.0386 126.06 11.0206 126.044 10.9542V10.9539Z" fill="#276FE5"/>
<path d="M124.972 29.8912C124.758 29.961 124.554 30.0291 124.349 30.0947C123.707 30.3005 123.065 30.5072 122.422 30.7098C121.472 31.0095 120.52 31.3055 119.569 31.6044C119.479 31.6327 119.389 31.6665 119.302 31.7046C118.953 31.8568 118.581 31.882 118.208 31.9201C117.936 31.9479 117.67 31.9224 117.4 31.9175C116.817 31.9072 116.233 31.9092 115.65 31.9164C115.315 31.9204 114.982 31.9453 114.648 31.9573C114.573 31.9599 114.497 31.9427 114.422 31.9439C113.809 31.9545 113.196 31.9799 112.583 31.9742C112.311 31.9716 112.039 31.992 111.766 31.9871C111.553 31.9834 111.333 31.9745 111.118 31.9985C110.973 32.0146 110.842 31.8932 110.829 31.7472C110.824 31.6902 110.862 31.688 110.901 31.6822C111.088 31.6548 111.274 31.625 111.461 31.5998C111.808 31.5531 112.154 31.5085 112.501 31.4635C112.89 31.4132 113.28 31.3645 113.668 31.3124C114.137 31.2497 114.604 31.1816 115.073 31.1212C115.41 31.0777 115.75 31.0525 116.086 30.9995C116.473 30.9386 116.863 30.893 117.251 30.8415C117.579 30.7977 117.907 30.7542 118.235 30.7119C118.479 30.6804 118.724 30.6515 118.967 30.6208C119.258 30.5842 119.548 30.5487 119.838 30.51C120.245 30.4557 120.651 30.3978 121.058 30.3437C121.513 30.2833 121.968 30.2272 122.422 30.1665C122.811 30.1147 123.199 30.0563 123.588 30.0054C124.001 29.9516 124.414 29.9023 124.828 29.8542C124.87 29.8494 124.922 29.8334 124.972 29.8915L124.972 29.8912Z" fill="#E4E5E6"/>
<path d="M126.802 29.8841C127.069 29.8411 127.33 29.8798 127.591 29.9182C127.923 29.9665 128.258 30 128.589 30.0555C128.859 30.1008 129.128 30.1486 129.4 30.1795C129.686 30.2121 129.971 30.245 130.257 30.282C130.622 30.3292 130.989 30.3713 131.351 30.4331C131.645 30.4835 131.944 30.4789 132.238 30.5367C132.469 30.5822 132.705 30.606 132.94 30.6358C133.23 30.6727 133.521 30.705 133.811 30.7408C134.121 30.7792 134.43 30.8175 134.74 30.8588C135.077 30.9037 135.413 30.9521 135.751 30.9982C136.382 31.0843 137.014 31.1673 137.645 31.2581C137.754 31.2738 137.859 31.3213 137.962 31.3531C137.965 31.3969 137.938 31.3989 137.916 31.3978C137.655 31.3863 137.394 31.4201 137.133 31.3763C137.034 31.3597 136.927 31.3972 136.823 31.3978C136.347 31.4006 135.87 31.3915 135.394 31.4009C134.87 31.4115 134.345 31.4258 133.823 31.4627C133.623 31.4768 133.424 31.4713 133.226 31.4862C132.884 31.5117 132.539 31.4831 132.197 31.5375C131.987 31.5707 131.786 31.4791 131.589 31.4155C130.915 31.1988 130.246 30.9701 129.572 30.7557C128.704 30.4792 127.832 30.2118 126.962 29.9402C126.908 29.9233 126.855 29.903 126.802 29.8844L126.802 29.8841Z" fill="#E4E5E6"/>
<path d="M124.717 17.3807C124.717 17.1517 124.72 16.9227 124.715 16.694C124.714 16.6141 124.736 16.5835 124.819 16.5866C125.042 16.5947 125.267 16.5898 125.49 16.6024C125.705 16.6147 125.869 16.7698 125.915 16.9837C125.963 17.2084 125.877 17.446 125.695 17.5413C125.604 17.5885 125.619 17.6309 125.66 17.6953C125.733 17.8072 125.803 17.9203 125.875 18.0328C125.893 18.0608 125.909 18.096 125.947 18.0952C125.997 18.094 125.997 18.0454 126.01 18.0122C126.178 17.5819 126.353 17.1537 126.51 16.7192C126.557 16.5889 126.641 16.5935 126.741 16.5875C126.839 16.5815 126.896 16.617 126.934 16.7143C127.11 17.1674 127.291 17.6186 127.474 18.0686C127.508 18.1504 127.5 18.1836 127.407 18.1748C127.388 18.173 127.369 18.1748 127.35 18.1748C127.129 18.1765 127.124 18.1779 127.064 17.9589C127.036 17.8544 126.989 17.8018 126.877 17.8155C126.835 17.8207 126.792 17.8161 126.749 17.8161C126.458 17.8155 126.455 17.8146 126.347 18.0906C126.322 18.1553 126.289 18.1779 126.222 18.1765C126.036 18.1727 125.851 18.1722 125.665 18.1756C125.598 18.1768 125.56 18.1487 125.528 18.0943C125.454 17.9664 125.376 17.841 125.302 17.7136C125.261 17.6435 125.21 17.5788 125.122 17.6051C125.043 17.6292 125.08 17.7105 125.077 17.7668C125.072 17.8524 125.073 17.9386 125.078 18.0242C125.083 18.1184 125.085 18.2014 124.95 18.175C124.853 18.1559 124.7 18.244 124.717 18.0242C124.734 17.8109 124.721 17.5951 124.721 17.3807H124.718H124.717ZM125.071 17.1156C125.107 17.1858 124.983 17.3484 125.203 17.3423C125.513 17.334 125.575 17.3043 125.577 17.1199C125.579 16.9273 125.492 16.862 125.23 16.8606C125.125 16.86 125.072 16.945 125.071 17.1156ZM126.729 17.0177C126.687 17.1385 126.659 17.2238 126.627 17.3077C126.528 17.5736 126.528 17.5725 126.812 17.5542C126.887 17.5493 126.903 17.523 126.881 17.4577C126.834 17.3232 126.788 17.1886 126.729 17.0177H126.729Z" fill="#276FE5"/>
<path d="M123.387 18.1648C123.351 18.1674 123.319 18.1711 123.287 18.1714C123.03 18.176 123.025 18.1774 122.947 17.9329C122.914 17.831 122.861 17.799 122.76 17.8067C122.661 17.8144 122.56 17.8156 122.461 17.8076C122.365 17.7995 122.316 17.8313 122.287 17.9272C122.208 18.1817 122.203 18.1803 121.938 18.1711C121.91 18.1702 121.882 18.1674 121.839 18.1642C121.944 17.894 122.047 17.6307 122.15 17.3679C122.239 17.142 122.331 16.9176 122.415 16.6903C122.446 16.6082 122.498 16.5758 122.578 16.5904C122.663 16.6062 122.77 16.5561 122.819 16.6843C123.004 17.1632 123.195 17.6401 123.383 18.1179C123.388 18.1299 123.385 18.1448 123.387 18.1645L123.387 18.1648ZM122.795 17.5322C122.741 17.3773 122.688 17.2216 122.624 17.037C122.588 17.1352 122.564 17.2016 122.539 17.2671C122.459 17.4736 122.533 17.5675 122.76 17.5488C122.769 17.5482 122.777 17.5411 122.795 17.5319V17.5322Z" fill="#276FE5"/>
<path d="M128.807 17.2073C128.801 17.3937 128.838 17.6382 128.741 17.8732C128.665 18.0569 128.54 18.1734 128.34 18.1923C128.241 18.2018 128.139 18.2061 128.04 18.1958C127.801 18.1706 127.652 18.0297 127.581 17.8039C127.566 17.7541 127.557 17.7017 127.55 17.6499C127.516 17.3934 127.461 17.4152 127.765 17.4103C127.859 17.4089 127.888 17.4432 127.881 17.5368C127.874 17.6536 127.904 17.7632 127.991 17.8514C128.137 18 128.384 17.9473 128.434 17.7458C128.499 17.4787 128.464 17.2045 128.465 16.9331C128.465 16.8607 128.408 16.869 128.361 16.8681C128.252 16.8664 128.142 16.865 128.033 16.8673C127.903 16.8701 127.944 16.7745 127.937 16.7064C127.928 16.6328 127.946 16.5928 128.035 16.5951C128.259 16.6014 128.483 16.6016 128.707 16.5974C128.792 16.5959 128.811 16.6308 128.809 16.7078C128.804 16.8555 128.807 17.0035 128.807 17.2068L128.807 17.2073Z" fill="#276FE5"/>
<path d="M123.831 17.249C123.831 17.4204 123.835 17.5922 123.829 17.7634C123.826 17.8593 123.851 17.8999 123.956 17.8936C124.117 17.8839 124.28 17.8959 124.441 17.8879C124.588 17.8804 124.532 17.9864 124.543 18.0539C124.556 18.1309 124.539 18.177 124.441 18.175C124.156 18.1687 123.871 18.1704 123.585 18.173C123.513 18.1736 123.484 18.1521 123.483 18.0765C123.483 17.6097 123.479 17.1428 123.475 16.6762C123.474 16.6252 123.489 16.6015 123.545 16.5932C123.798 16.5568 123.831 16.5826 123.831 16.8348C123.831 16.9063 123.83 16.9776 123.83 17.0492C123.83 17.1159 123.83 17.1826 123.83 17.2493H123.83L123.831 17.249Z" fill="#276FE5"/>
<path d="M129.017 17.3874C129.017 17.1635 129.02 16.9397 129.015 16.7161C129.013 16.6257 129.038 16.5796 129.135 16.597C129.139 16.5979 129.144 16.597 129.149 16.597C129.362 16.5956 129.363 16.5956 129.364 16.8083C129.366 17.2176 129.363 17.6272 129.37 18.0366C129.372 18.1428 129.345 18.188 129.237 18.172C129.204 18.1671 129.17 18.1677 129.137 18.172C129.036 18.186 129.007 18.1431 129.01 18.044C129.017 17.8253 129.013 17.6061 129.013 17.3871C129.014 17.3871 129.015 17.3871 129.017 17.3871L129.017 17.3874Z" fill="#276FE5"/>
</g>
<defs>
<clipPath id="clip0_211_3087">
<rect width="140.627" height="32" fill="white" transform="translate(0.372803)"/>
</clipPath>
</defs>
</svg>
